<svg width="80" height="89" viewBox="0 0 80 89" fill="none" xmlns="http://www.w3.org/2000/svg">
<path d="M7.23571 76.5189C-0.12839 76.4464 0.0272686 76.3506 0.00105801 76.6944C-0.0356724 77.1737 0.894713 76.8104 1.11724 77.5851L1.11831 77.5928C1.14077 78.2814 1.08532 87.0233 1.08175 87.5667C1.07391 87.6217 1.01097 87.9571 0.636352 88.1566C0.527944 88.2145 0.473383 88.3365 0.504051 88.4531C0.534541 88.5698 0.642415 88.6515 0.765979 88.6515H0.822501C1.95758 88.6515 3.49366 88.6836 4.36467 88.8368C4.98018 88.9451 5.58231 89 6.15448 89C6.1543 89 6.15484 89 6.15448 89C10.6035 89 12.9494 85.6845 12.9664 82.4096C12.981 79.5999 11.1939 76.558 7.23571 76.5189ZM3.36243 77.5204C11.2056 77.0296 11.3351 82.811 10.1545 85.6405C9.53671 87.1213 7.37211 88.0062 5.6358 88.0062C4.5617 88.0061 3.77752 87.6749 3.4243 87.073L3.36243 77.5204Z" fill="white"/>
<path d="M17.6481 82.6554C17.6481 86.7806 21.1113 88.939 24.532 88.939C27.8493 88.939 31.3749 86.6327 31.3749 82.3587C31.3749 74.2173 17.6481 74.009 17.6481 82.6554ZM20.106 82.6297C20.106 79.605 20.9998 77.1718 24.1312 77.1718C26.5875 77.1718 28.8245 79.6337 28.8245 82.3425C28.8774 84.7775 28.3227 87.7356 25.3816 88.012C22.3389 88.0077 20.5639 86.1933 20.1069 82.6347L20.106 82.6297Z" fill="white"/>
<path d="M46.2354 76.3563C45.9644 76.4405 45.6358 76.497 45.4179 76.497C45.1934 76.497 37.099 76.4857 36.6128 76.485C36.2774 76.3138 35.7555 76.1052 35.6744 76.4652L35.3388 77.9533C35.3108 78.0774 35.3775 78.2032 35.4975 78.2528C35.6173 78.302 35.7566 78.2611 35.8284 78.1551C35.9743 77.9397 36.1939 77.7767 36.4992 77.6571C37.2827 77.6265 39.3859 77.623 39.8483 77.6225L39.8001 87.6389C39.7994 87.6537 39.7787 88.0005 39.4474 88.1971C39.2149 88.3351 39.3155 88.6859 39.5879 88.6859C39.5899 88.6859 42.4695 88.6732 42.4716 88.6732C42.7553 88.672 42.8452 88.2964 42.5904 88.1735C42.3541 88.0593 42.2288 87.887 42.2086 87.6631C42.1974 87.1973 42.1261 79.2587 42.1115 77.6246L45.0586 77.6927C45.085 77.6939 45.707 77.7283 45.9273 78.3326C45.9707 78.4516 46.0953 78.5238 46.2233 78.5046C46.5074 78.4621 46.4548 78.2635 46.4934 77.0209C46.555 76.8849 46.6054 76.6965 46.5844 76.5667C46.5587 76.4069 46.3936 76.308 46.2354 76.3563Z" fill="white"/>
<path d="M62.6681 84.9762C61.9433 84.965 60.4318 84.9636 60.1105 84.9635C60.1001 84.9384 56.4882 76.2286 56.4882 76.2286C56.3904 76.0032 56.076 76.0233 55.9888 76.2321L51.2681 87.5508C51.2661 87.555 51.0562 87.9639 50.5447 88.2029C50.2858 88.3239 50.3757 88.7037 50.6611 88.7042C50.6757 88.7042 52.8013 88.7075 52.8013 88.7075C53.1055 88.7075 53.175 88.2924 52.8908 88.195C52.7408 88.1217 52.672 88.0186 52.7145 87.8604C52.866 87.3525 53.27 86.2501 53.3679 85.9847L58.0783 85.9967L59.0041 88.1354C59.0078 88.1443 59.0176 88.1843 58.9872 88.2288C58.8297 88.3962 58.9497 88.6672 59.1826 88.6705C59.2017 88.6708 61.8694 88.7075 61.8694 88.7075C62.0287 88.7075 62.1433 88.5846 62.1433 88.444C62.1433 88.3284 62.0668 88.23 61.9604 88.1945C61.6063 88.028 61.4577 87.8698 60.5477 85.9885C61.3516 86.0052 61.5034 85.652 62.6985 85.5011C62.839 85.4834 62.9417 85.3627 62.9337 85.2249C62.9257 85.0871 62.8098 84.9784 62.6681 84.9762ZM55.7911 79.8243L57.6877 84.9471L53.7347 84.9916L55.7911 79.8243Z" fill="white"/>
<path d="M79.4829 85.9328C79.223 86.4874 78.9022 87.0316 78.1 87.0632C77.6821 87.0792 75.4567 87.1651 74.0588 87.155C82.4413 80.9222 80.2092 76.2296 75.2149 76.2296C74.1199 76.2296 73.0196 76.4867 72.1959 76.935C72.1163 76.9783 72.0646 77.0575 72.058 77.1458C72.037 77.4281 72.0928 77.9985 72.2242 78.841C72.2428 78.9602 72.3421 79.052 72.4653 79.0637C72.5874 79.0744 72.704 79.0037 72.7459 78.8903C73.2277 77.5807 74.1959 77.1142 74.9414 77.1142C76.008 77.1142 77.1231 78.0066 77.1905 79.7122C77.3406 83.5078 72.5978 87.09 71.5345 88.0766C71.3543 88.2282 71.2129 88.388 71.3623 88.5719C71.3623 88.903 71.7922 88.9452 71.8881 88.6749C72.8005 88.6697 77.7525 88.6419 78.6692 88.6516C79.3335 88.6986 79.6621 88.3221 79.6768 87.9011L79.9956 86.0869C80.0485 85.7839 79.6135 85.6544 79.4829 85.9328Z" fill="white"/>
<path d="M75.2487 15.9754C74.971 3.17232 74.9537 5.93979 75.2242 1.94947C75.2403 1.71289 75.057 1.50847 74.8145 1.49231C55.2587 0.188277 54.5177 0.0379183 53.0023 0.0379183C26.3244 0.0358324 40.3303 -0.389169 4.72101 1.65866C4.47905 1.67274 4.29415 1.87438 4.30681 2.11008C6.60175 45.0347 6.51795 38.0323 5.3456 66.6404C5.33722 66.8459 5.47933 67.0282 5.68473 67.0755C8.34983 67.6898 7.87751 67.448 14.0944 67.4523C14.1046 67.4553 25.7449 66.2161 25.7554 66.215C25.8104 66.2239 41.8521 68.7906 41.9079 68.7906C41.9202 68.7906 41.9323 68.7901 41.9447 68.789C60.7451 67.2531 55.3563 67.6242 67.4853 66.9689L74.6073 68.3733C74.8844 68.4275 75.1385 68.2187 75.1354 67.9474C74.9812 53.9688 75.2487 15.9754 75.2487 15.9754ZM46.3388 14.9564C46.3917 14.9439 46.4675 14.9258 46.562 14.9013L51.6312 13.7876C54.2278 13.1533 54.6115 12.9988 56.8335 11.9804C57.8595 12.3273 60.6726 13.8448 61.3856 14.716C61.8568 15.2928 61.8258 15.4211 61.6776 16.0386C61.6491 16.1572 61.6165 16.2937 61.5823 16.4548C61.5799 16.4654 61.5781 16.4763 61.5765 16.4871L60.4618 24.9913C59.3588 25.0309 59.2668 24.9486 58.9617 24.6748C58.8358 24.5614 58.6791 24.4206 58.4028 24.24C56.7255 23.1425 51.2362 19.183 49.5029 17.82L46.0956 15.1511L46.123 15.1252C46.1599 15.0894 46.1927 15.0412 46.2145 14.9952C46.2316 14.9821 46.299 14.966 46.3388 14.9564ZM54.2383 57.7746C54.1386 57.6775 11.641 13.7563 11.6098 13.6957L15.3226 10.919L67.207 44.4117C66.7782 45.6095 66.607 46.9841 66.3492 48.1256C65.4377 52.1572 64.2655 53.9211 62.4326 57.7515C59.809 57.8532 54.4189 57.8336 54.2383 57.7746ZM15.5793 45.8918C16.057 44.7726 16.7137 42.9721 17.2657 42.06C19.9795 43.7133 30.5807 54.0974 31.5027 55.4995C30.992 55.6842 28.7985 56.002 25.1542 57.4213C22.8452 58.3192 20.6649 59.1712 18.5589 58.4745C18.3489 58.4055 17.789 57.9422 16.9588 57.2436C15.4426 55.9676 14.0694 55.0482 13.271 54.5888C11.9091 53.805 12.1213 53.9703 15.5793 45.8918Z" fill="white"/>
<path d="M9.72954 45.984C9.39683 29.2527 9.76841 38.3667 7.79638 1.48284L4.72101 1.65866C4.47905 1.67274 4.29415 1.87438 4.30681 2.11008L5.94417 32.7367C6.26939 49.0958 6.35836 41.9258 5.3456 66.6404C5.33722 66.8459 5.47933 67.0282 5.68473 67.0755C7.18872 67.4223 7.81385 67.5009 8.8719 67.5009C8.83874 67.3905 8.80219 68.6103 9.72954 45.984Z" fill="white"/>
<path d="M33.7089 56.4468C33.7089 56.4468 35.5073 55.8432 34.0289 54.2614C27.9948 47.7004 24.3189 45.3235 20.8251 41.5867C19.3649 40.0457 17.2649 42.0617 17.2649 42.0617C30.9197 53.8947 28.1842 52.1818 30.5911 54.4474C30.9106 54.7481 31.1627 54.9856 31.5019 55.5011C31.4387 55.5239 31.1597 55.5926 30.7735 55.6877C25.0924 57.0852 24.2401 58.0339 21.7034 58.5639C24.0707 60.4456 28.2452 58.1499 31.2212 57.1509C31.9328 56.9123 32.8755 56.659 33.7089 56.4468Z" fill="white"/>
<path d="M69.7929 40.9282C69.7927 40.928 20.1898 10.0894 20.1898 10.0894C18.528 9.05639 16.7359 9.55353 15.3254 10.9191L67.2098 44.4118C66.781 45.6096 66.6098 46.9842 66.352 48.1257C65.4405 52.1572 64.2683 53.9212 62.4354 57.7516C62.4354 57.7516 67.1344 58.6322 68.567 55.5321C71.9286 48.5575 71.1524 47.242 71.9534 45.0398C71.8583 43.7977 72.0354 42.3226 69.7929 40.9282Z" fill="white"/>
<path d="M61.5841 16.4541C61.5818 16.4647 61.58 16.4756 61.5784 16.4864L60.4637 24.9906C60.4637 24.9906 64.8742 27.6463 65.4284 23.2798C65.4285 23.2784 65.4287 23.277 65.4289 23.2756L66.3413 16.0864C66.3429 16.0755 66.3447 16.0644 66.3471 16.0534C66.3819 15.8886 66.4154 15.7492 66.4445 15.6281C66.5959 14.9967 66.6276 14.8655 66.1458 14.2759C65.6395 13.6571 63.3704 12.0238 61.6799 10.9647C60.0842 9.92174 58.1892 11.1759 58.1892 11.1759C57.7162 11.5293 57.2934 11.838 56.8354 11.9797C57.9942 12.5906 60.9286 14.1577 61.3856 14.716C61.8568 15.2928 61.8258 15.4211 61.6776 16.0386C61.6491 16.1574 61.6182 16.2931 61.5841 16.4541Z" fill="white"/>
</svg>
