<svg xmlns="http://www.w3.org/2000/svg" width="924" height="335" viewBox="0 0 924 335" fill="none"><path d="M0.461914 205.74C0.461914 276.562 0.637071 334.48 0.870613 334.48C1.22093 334.48 48.8053 325.664 54.6438 324.496L57.6799 323.913V229.386H93.879V220.745C93.879 216.016 94.0541 203.697 94.2877 193.304L94.638 174.504H57.6799V133.05H78.9906C90.7261 133.05 100.301 132.933 100.301 132.758C100.301 132.116 104.972 82.2547 105.264 79.7441L105.614 77H0.461914V205.74ZM873.794 84.5317L827.202 88.3852V320.993L829.129 321.285C830.822 321.577 921.028 328.116 922.838 328.058C923.363 328.058 923.538 321.869 923.538 299.157V270.256H883.836V228.219H917.7V178.007H882.668V144.727L884.011 144.494C884.712 144.319 890.667 144.085 897.265 143.852C903.862 143.676 912.445 143.384 916.415 143.151L923.538 142.801V80.5031L921.962 80.5615C921.028 80.6199 899.367 82.3715 873.794 84.5317ZM574.684 92.5889C575.268 98.4275 581.924 186.414 581.807 186.531C581.749 186.648 573.166 165.571 562.715 139.706C552.323 113.841 543.565 92.4138 543.331 92.0051C542.981 91.3628 526.866 94.3405 500.418 99.9455L497.907 100.471V301.201H549.87L549.578 296.997C548.995 289.173 546.834 224.482 547.068 221.913C547.243 219.636 548.995 223.606 565.576 263.659C575.618 288.005 584.143 308.148 584.376 308.499C584.727 308.849 592.842 308.324 606.621 307.156C618.59 306.105 628.399 305.171 628.399 305.112C628.457 305.054 628.166 262.958 627.757 211.579C627.348 160.2 626.998 111.681 626.998 103.682L626.939 89.2609H574.334L574.684 92.5889ZM163.649 92.8225C128.735 95.1579 109.526 119.038 103.454 167.498C102.228 177.54 101.702 211.637 102.578 223.548C105.497 262.199 115.948 287.305 134.515 300.091C144.499 306.922 159.504 310.601 174.334 309.725C191.207 308.791 202.709 304.003 213.044 293.669C221.51 285.203 226.122 277.262 230.559 263.717C236.748 244.8 239.551 216.541 238.149 187.115C236.573 154.186 231.61 133.692 221.393 117.987C211.642 103.04 196.229 94.107 178.246 92.9976C175.385 92.8225 172.349 92.6473 171.531 92.5305C170.714 92.4722 167.211 92.5889 163.649 92.8225ZM171.882 138.714C176.144 143.326 177.954 161.718 177.954 201.069C177.954 249.529 174.918 269.672 168.262 265.352C165.401 263.425 163.241 254.025 162.19 238.436C161.431 227.051 161.431 174.913 162.19 163.995C163.299 148.581 165.284 140.057 168.262 138.013C169.897 136.845 170.189 136.904 171.882 138.714ZM245.681 198.967V305.288H299.221L299.571 297.873C299.805 293.727 300.272 280.299 300.622 267.921C300.972 255.543 301.44 244.683 301.673 243.808C301.965 242.581 304.476 250.463 312.182 277.087C317.787 296.296 322.517 312.235 322.75 312.469C323.217 312.994 377.983 308.674 378.567 308.09C378.742 307.857 372.67 288.764 365.08 265.527L351.301 223.373L354.22 220.804C363.912 212.338 371.911 195.99 374.188 179.817C375.181 172.752 374.538 155.237 373.02 148.756C367.182 123.358 351.71 103.624 331.975 96.2672C323.392 93.1144 324.093 93.1728 283.515 92.9392L245.681 92.7057V198.967ZM305.877 143.034C310.022 145.078 313.409 150.332 315.218 157.572C316.445 162.418 316.269 177.773 314.927 182.678C312.416 191.903 307.979 197.274 301.323 199.318L299.98 199.668V141.224L301.907 141.633C302.899 141.808 304.709 142.45 305.877 143.034ZM375.881 120.497V147.647H405.658V304.12H461.708V156.988H492.069V102.69L490.784 102.456C489.558 102.164 378.217 93.2896 376.64 93.3479C376.056 93.3479 375.881 99.1865 375.881 120.497ZM639.2 205.156V311.126H697.002V99.1865H639.2V205.156ZM762.978 106.543C731.333 108.236 705.001 109.638 704.476 109.638C703.483 109.696 703.425 111.389 703.425 137.137V164.578H733.201V318.132H789.835V158.156H821.364V130.715C821.364 115.593 821.188 103.332 820.955 103.332C820.663 103.39 794.623 104.792 762.978 106.543Z" fill="white"></path><path d="M217.469 1.5V47H209.625V1.5H217.469ZM236.031 21.4062V27.625H215.469V21.4062H236.031ZM238.625 1.5V7.75H215.469V1.5H238.625Z" fill="white"></path><path d="M296.416 40.7812V47H272.26V40.7812H296.416ZM274.479 1.5V47H266.635V1.5H274.479ZM293.26 20.5V26.625H272.26V20.5H293.26ZM296.26 1.5V7.75H272.26V1.5H296.26Z" fill="white"></path><path d="M342.301 7.5625L328.708 47H320.489L337.614 1.5H342.864L342.301 7.5625ZM353.676 47L340.051 7.5625L339.458 1.5H344.739L361.926 47H353.676ZM353.02 30.125V36.3438H328.27V30.125H353.02Z" fill="white"></path><path d="M403.561 1.5V47H395.78V1.5H403.561ZM417.842 1.5V7.75H381.624V1.5H417.842Z" fill="white"></path><path d="M471.134 1.5H478.946V31.9062C478.946 35.3646 478.196 38.2604 476.696 40.5938C475.196 42.9271 473.155 44.6875 470.571 45.875C468.009 47.0417 465.144 47.625 461.978 47.625C458.707 47.625 455.79 47.0417 453.228 45.875C450.665 44.6875 448.644 42.9271 447.165 40.5938C445.707 38.2604 444.978 35.3646 444.978 31.9062V1.5H452.79V31.9062C452.79 34.0938 453.165 35.8958 453.915 37.3125C454.665 38.7083 455.728 39.7396 457.103 40.4062C458.478 41.0729 460.103 41.4062 461.978 41.4062C463.853 41.4062 465.467 41.0729 466.821 40.4062C468.196 39.7396 469.259 38.7083 470.009 37.3125C470.759 35.8958 471.134 34.0938 471.134 31.9062V1.5Z" fill="white"></path><path d="M509.237 1.5H525.331C528.79 1.5 531.737 2.02083 534.175 3.0625C536.612 4.10417 538.477 5.64583 539.769 7.6875C541.081 9.70833 541.737 12.2083 541.737 15.1875C541.737 17.4583 541.321 19.4583 540.487 21.1875C539.654 22.9167 538.477 24.375 536.956 25.5625C535.435 26.7292 533.623 27.6354 531.519 28.2812L529.144 29.4375H514.675L514.612 23.2188H525.456C527.331 23.2188 528.894 22.8854 530.144 22.2188C531.394 21.5521 532.331 20.6458 532.956 19.5C533.602 18.3333 533.925 17.0208 533.925 15.5625C533.925 13.9792 533.612 12.6042 532.987 11.4375C532.383 10.25 531.446 9.34375 530.175 8.71875C528.904 8.07292 527.29 7.75 525.331 7.75H517.081V47H509.237V1.5ZM535.206 47L524.519 26.5625L532.737 26.5312L543.581 46.5938V47H535.206Z" fill="white"></path><path d="M579.685 1.5V47H571.841V1.5H579.685Z" fill="white"></path><path d="M647.289 1.5V47H639.445L619.039 14.4062V47H611.195V1.5H619.039L639.508 34.1562V1.5H647.289Z" fill="white"></path><path d="M713.33 23.75V41.125C712.684 41.9792 711.674 42.9167 710.299 43.9375C708.945 44.9375 707.143 45.8021 704.893 46.5312C702.643 47.2604 699.84 47.625 696.486 47.625C693.632 47.625 691.018 47.1458 688.643 46.1875C686.268 45.2083 684.215 43.7812 682.486 41.9062C680.778 40.0312 679.455 37.75 678.518 35.0625C677.58 32.3542 677.111 29.2708 677.111 25.8125V22.6562C677.111 19.2188 677.538 16.1562 678.393 13.4688C679.268 10.7604 680.518 8.46875 682.143 6.59375C683.768 4.71875 685.726 3.30208 688.018 2.34375C690.33 1.36458 692.945 0.875 695.861 0.875C699.59 0.875 702.674 1.5 705.111 2.75C707.57 3.97917 709.465 5.6875 710.799 7.875C712.132 10.0625 712.976 12.5625 713.33 15.375H705.643C705.393 13.7917 704.903 12.375 704.174 11.125C703.465 9.875 702.445 8.89583 701.111 8.1875C699.799 7.45833 698.09 7.09375 695.986 7.09375C694.174 7.09375 692.58 7.4375 691.205 8.125C689.83 8.8125 688.684 9.82292 687.768 11.1562C686.872 12.4896 686.195 14.1146 685.736 16.0312C685.278 17.9479 685.049 20.1354 685.049 22.5938V25.8125C685.049 28.3125 685.309 30.5312 685.83 32.4688C686.372 34.4062 687.143 36.0417 688.143 37.375C689.163 38.7083 690.403 39.7188 691.861 40.4062C693.32 41.0729 694.965 41.4062 696.799 41.4062C698.59 41.4062 700.059 41.2604 701.205 40.9688C702.351 40.6562 703.257 40.2917 703.924 39.875C704.611 39.4375 705.143 39.0208 705.518 38.625V29.5938H696.049V23.75H713.33Z" fill="white"></path></svg>