<svg width="140" height="60" viewBox="0 0 140 60" fill="none" xmlns="http://www.w3.org/2000/svg">
<path d="M116.508 46.0013C116.957 46.4045 117.307 46.7214 117.657 47.0382C119.431 48.7089 121.354 49.9763 123.678 50.322C126.026 50.6676 128.325 50.6388 130.323 48.8241C131.273 47.96 131.897 46.8366 132.047 45.4828C132.122 44.8491 131.997 44.1002 131.722 43.5529C131.098 42.2279 129.999 41.4213 128.849 40.7588C126.851 39.6066 124.802 38.5985 122.828 37.3887C121.654 36.6686 120.48 35.8044 119.506 34.7675C117.182 32.2615 117.132 28.4304 119.231 25.6652C120.73 23.6489 122.729 22.6983 124.927 22.4103C127.55 22.0358 130.198 22.2086 132.797 22.9288C133.696 23.188 133.746 23.3032 133.746 24.369C133.746 25.7228 133.746 27.0766 133.721 28.4304C133.721 28.7185 133.671 29.0065 133.646 29.381C133.421 29.1794 133.296 29.0641 133.171 28.9201C131.622 27.3359 129.774 26.5581 127.725 26.4429C126.401 26.3565 125.077 26.4429 123.803 26.9614C123.053 27.2783 122.404 27.7391 122.004 28.5745C121.404 29.7843 121.504 30.7924 122.354 31.8294C123.328 33.0392 124.577 33.7881 125.876 34.4506C128.1 35.6316 130.373 36.755 132.547 38.1088C136.744 40.7588 136.569 45.6556 135.095 48.4209C133.921 50.6388 132.147 52.079 130.074 53.0872C127.126 54.5274 124.103 54.3258 121.08 53.7497C120.155 53.5769 119.231 53.3176 118.332 53.0296C118.082 52.9432 117.757 52.6551 117.707 52.3671C117.282 50.3796 116.908 48.3632 116.508 46.3757C116.458 46.3757 116.483 46.2893 116.508 46.0013Z" fill="white"/>
<path d="M22.522 53.5478C22.9967 52.9429 23.4214 52.338 23.921 51.7619C24.0709 51.5891 24.3957 51.5891 24.6455 51.5891C34.8885 51.5891 45.1316 51.6179 55.3746 51.6467C57.9728 51.6467 60.571 51.6755 63.1692 51.8483C64.4683 51.9347 65.7674 52.3092 67.0166 52.7124C68.3907 53.1733 69.4399 54.1527 69.9146 55.9674C70.0645 55.7081 70.1644 55.5929 70.2144 55.4489C70.789 53.9222 71.8383 53.0869 73.1624 52.5972C75.136 51.8771 77.1597 51.7619 79.1833 51.7619C90.9253 51.7043 102.692 51.6755 114.434 51.6179C114.759 51.6179 115.059 51.6467 115.384 51.5891C115.883 51.5026 116.183 51.6755 116.208 52.3092C116.208 52.4532 116.258 52.5684 116.283 52.7124C116.508 53.8934 116.508 53.9222 115.434 54.0374C114.509 54.1239 113.61 54.1815 112.685 54.1815C101.043 54.2103 89.4263 54.2103 77.7842 54.2103C75.8605 54.2103 74.0118 54.6711 72.3879 55.9097C71.2387 56.8027 70.4642 58.0125 70.1395 59.5679C70.1145 59.6831 70.0895 59.7696 70.0395 59.8848C70.0395 59.9136 69.9896 59.9424 69.9146 60C69.8646 59.8272 69.7647 59.6832 69.7397 59.5103C69.2651 57.3212 67.966 55.9674 66.2171 55.1032C64.8681 54.4407 63.4191 54.2103 61.97 54.1815C55.4745 54.1527 48.9789 54.2103 42.4834 54.2103C36.8872 54.1815 31.291 54.1239 25.7198 54.0374C24.6705 54.0086 23.6212 53.8646 22.572 53.7494C22.547 53.6918 22.522 53.6054 22.522 53.5478Z" fill="white"/>
<path d="M53.4509 38.0223C53.7257 37.9935 53.8756 37.9359 54.0255 37.9359C55.5994 37.9359 57.1483 37.9359 58.7223 37.9359C59.147 37.9359 59.2969 38.0799 59.2969 38.5984C59.2969 42.0549 59.2969 45.4827 59.2969 48.9392C59.2969 49.5153 59.122 49.8034 58.5724 49.9474C55.9492 50.5523 53.301 50.8115 50.6278 50.6387C47.8047 50.4659 45.1066 49.6881 42.8081 47.6142C38.1613 43.4951 37.8365 35.1418 42.1586 30.3602C44.2072 28.0847 46.7304 26.9613 49.5285 26.6156C51.9519 26.3276 54.3752 26.414 56.7736 26.9613C57.0484 27.0189 57.2733 27.0477 57.2733 27.4798C57.2233 28.8336 57.1733 30.1586 57.1234 31.6276C56.8485 31.5412 56.6237 31.5124 56.4238 31.426C54.1504 30.5619 51.852 30.0434 49.4536 30.3314C43.7575 31.0515 41.9337 37.3886 44.1322 42.2277C45.8311 45.9435 48.6791 47.4702 52.2267 47.355C53.1011 47.3262 53.9755 47.0957 54.8499 47.0093C55.2746 46.9517 55.3995 46.7213 55.3745 46.2604C55.3745 44.5609 55.3995 42.8326 55.3745 41.1332C55.3745 40.8163 55.2247 40.4419 55.0498 40.1826C54.5501 39.4337 54.0255 38.7712 53.4509 38.0223Z" fill="white"/>
<path d="M76.1604 49.5154C76.6101 49.0833 77.0598 48.6225 77.5594 48.2192C77.9592 47.8735 78.134 47.4703 78.109 46.8942C78.0841 41.2485 78.109 35.6316 78.109 29.9859C78.109 29.4098 77.9592 28.9777 77.5844 28.632C77.2596 28.344 76.9598 28.0559 76.6351 27.7391C76.685 27.6815 76.735 27.6239 76.76 27.5951C76.785 27.5663 76.8099 27.5087 76.8349 27.5087C78.2839 27.5087 79.7329 27.451 81.157 27.5087C81.4568 27.5087 81.7815 27.8831 82.0064 28.1424C85.1043 31.7429 88.1772 35.3435 91.275 38.9729C91.4249 39.1457 91.4749 39.405 91.5748 39.6066C91.6748 39.549 91.7747 39.4626 91.8746 39.405C91.8746 39.0593 91.8746 38.7137 91.8746 38.368C91.8746 35.1995 91.8746 32.0022 91.8746 28.8337C91.8746 27.2206 91.7997 27.5087 93.0239 27.4799C94.248 27.4799 95.4722 27.4799 96.6964 27.4799C96.7213 27.5375 96.7463 27.5951 96.7713 27.6815C96.4465 27.9695 96.1467 28.2864 95.8219 28.5456C95.2973 28.9489 95.1224 29.4674 95.1224 30.2163C95.1474 36.4093 95.1224 42.6023 95.1224 48.8241C95.1224 49.1986 95.1224 49.573 95.1224 49.9475C95.0475 49.9763 94.9975 50.0339 94.9226 50.0627C90.5006 44.5322 86.0786 39.0017 81.5567 33.356C81.5317 33.7593 81.5067 34.0185 81.5067 34.2489C81.5067 39.1457 81.5067 44.0425 81.5067 48.9105C81.5067 49.5442 81.3818 49.7746 80.7822 49.7746C79.4831 49.717 78.159 49.7746 76.8599 49.7458C76.66 49.7458 76.4352 49.717 76.2353 49.717C76.2104 49.6306 76.1854 49.573 76.1604 49.5154Z" fill="white"/>
<path d="M97.8706 49.4002C99.4195 47.6431 99.4445 45.5116 99.4445 43.38C99.4695 39.9235 99.4695 36.4957 99.4695 33.0392C99.4695 29.8419 99.4695 29.8419 97.9705 27.307C98.1703 27.2782 98.3203 27.2494 98.4951 27.2494C101.418 27.2494 104.316 27.3359 107.239 27.2494C113.76 27.0766 118.132 34.4506 115.683 41.767C114.559 45.1371 112.61 47.6719 109.613 48.9105C108.913 49.1986 108.139 49.3714 107.389 49.3714C104.391 49.4578 101.418 49.4578 98.4202 49.4866C98.2453 49.4866 98.1454 49.429 97.8706 49.4002ZM102.942 38.5121C102.942 39.7218 102.942 40.9604 102.942 42.1702C102.942 43.4088 102.967 44.6474 102.942 45.886C102.942 46.4045 103.042 46.635 103.542 46.5774C104.466 46.4621 105.39 46.4909 106.29 46.3469C108.064 46.0589 109.737 45.454 111.037 43.9561C112.66 42.055 112.96 39.693 112.71 37.187C112.386 33.6729 110.737 31.5125 107.739 30.8212C106.415 30.5044 105.016 30.562 103.667 30.4179C103.117 30.3603 102.917 30.5908 102.917 31.2533C102.967 33.6441 102.942 36.0637 102.942 38.5121Z" fill="white"/>
<path d="M6.78278 54.6425C7.43233 53.7208 7.98196 52.8854 8.58155 52.1365C9.18114 51.3876 9.381 50.5811 9.381 49.5729C9.35602 42.0837 9.381 34.5945 9.40599 27.1053C9.40599 25.9243 9.18114 24.9449 8.45664 24.1096C8.13186 23.7351 7.88203 23.3031 7.50728 22.7558C7.85705 22.727 8.05691 22.6694 8.23179 22.6694C9.80571 22.6694 11.3547 22.6982 12.9286 22.6406C13.4782 22.6406 13.6281 22.8422 13.6281 23.4471C13.6031 31.9156 13.6281 40.413 13.6281 48.8816C13.6281 49.9185 13.6281 49.9185 14.5025 49.9185C17.2506 49.9185 19.9738 49.9185 22.7219 49.9185C22.9467 49.9185 23.1716 49.9473 23.5213 49.9762C23.3215 50.293 23.2215 50.4946 23.0966 50.6675C22.1972 51.8773 21.3228 53.0871 20.3985 54.2392C20.2236 54.4697 19.8738 54.6425 19.599 54.6713C15.5518 54.7289 11.4796 54.7289 7.40735 54.7289C7.25745 54.7289 7.10756 54.7001 6.78278 54.6425Z" fill="white"/>
<path d="M41.2592 49.429C35.638 49.429 30.0169 49.429 24.2458 49.429C24.8204 48.7377 25.2951 48.1328 25.7947 47.5855C26.1445 47.2111 26.2944 46.779 26.2944 46.2029C26.2944 41.0469 26.2944 35.862 26.3194 30.706C26.3194 30.0723 26.1945 29.525 25.8197 29.0353C25.445 28.5457 25.1202 27.9696 24.6955 27.3359C24.9703 27.3071 25.1702 27.2495 25.345 27.2495C29.3423 27.2495 33.3646 27.2495 37.3618 27.2495C38.1363 27.2495 38.1363 27.2495 38.1363 28.1712C38.1363 29.1794 38.1363 30.1875 38.1363 31.2245C38.1363 31.4261 38.1113 31.6566 38.0863 32.0598C37.7366 31.7142 37.5367 31.4261 37.2619 31.2245C36.9371 31.0229 36.5874 30.7636 36.2376 30.7636C34.3889 30.706 32.5151 30.7636 30.6664 30.7348C30.2167 30.7348 30.0418 30.8788 30.0418 31.4261C30.0668 32.6071 30.0668 33.8169 30.0418 34.9979C30.0418 35.5164 30.2167 35.6604 30.6414 35.6316C31.8906 35.6028 33.1397 35.6316 34.3889 35.6316C34.7886 35.6316 34.9635 35.7756 34.9385 36.2653C34.9135 37.043 34.9135 37.8496 34.9385 38.6273C34.9635 39.1746 34.7636 39.3186 34.3139 39.3186C33.0898 39.2898 31.8906 39.3474 30.6664 39.2898C30.1917 39.2898 30.0169 39.4338 30.0418 40.0099C30.0668 41.8246 30.0418 43.6105 30.0668 45.4252C30.0668 46.3181 30.0668 46.3181 30.8413 46.3181C33.2646 46.3181 35.688 46.3469 38.1113 46.3181C38.6859 46.3181 39.1106 46.491 39.5104 47.0094C40.11 47.7872 40.7595 48.5361 41.4091 49.285C41.3341 49.3138 41.3091 49.3714 41.2592 49.429Z" fill="white"/>
<path d="M81.4318 12.8761C81.6817 12.8185 81.8316 12.7897 81.9815 12.7897C83.2806 12.7897 84.6047 12.7897 85.9038 12.7897C86.3285 12.7897 86.4784 12.9625 86.4784 13.4522C86.4534 16.4767 86.4784 19.5011 86.4784 22.5256C86.4784 22.8425 86.5034 23.1593 86.1036 23.2457C82.7559 23.8506 79.3832 24.3403 76.0355 23.3898C73.1875 22.5544 70.889 20.855 69.6399 17.6865C67.4914 12.2712 69.7898 5.93416 74.6864 3.77381C77.8343 2.39119 81.0321 2.4776 84.2799 3.11131C84.4298 3.14011 84.6296 3.42816 84.6296 3.57218C84.6546 4.55154 84.6546 5.50209 84.6296 6.48145C84.6047 7.23037 84.5047 7.28798 83.8802 7.02873C82.0564 6.30862 80.2077 5.90536 78.284 6.07819C72.7378 6.53906 71.2638 12.5304 73.2624 16.6783C74.9113 20.0484 77.5595 21.1718 80.7323 20.999C81.3819 20.9702 82.0064 20.7685 82.631 20.6533C82.9558 20.5957 83.0807 20.3941 83.0807 19.9908C83.0557 18.493 83.1057 17.0239 83.0557 15.5261C83.0557 15.2093 82.8309 14.8636 82.656 14.6044C82.3062 13.9707 81.8815 13.481 81.4318 12.8761Z" fill="white"/>
<path d="M60.8957 27.3361C61.1955 27.3073 61.3954 27.2785 61.5703 27.2785C65.5675 27.2785 69.5898 27.2785 73.5871 27.2785C74.1867 27.2785 74.3615 27.4801 74.3366 28.1714C74.2866 29.4388 74.3366 30.735 74.3366 32.0024C74.2866 32.0312 74.2366 32.06 74.1867 32.0888C73.9368 31.8008 73.712 31.4551 73.4372 31.2247C73.1624 30.9943 72.8376 30.7638 72.5128 30.7638C70.6141 30.735 68.7154 30.7638 66.8167 30.735C66.392 30.735 66.2171 30.879 66.2421 31.3975C66.2671 32.6073 66.2671 33.8459 66.2421 35.0557C66.2421 35.5454 66.417 35.6606 66.7917 35.6606C68.0408 35.6318 69.29 35.6606 70.5391 35.6606C70.9639 35.6606 71.1387 35.8334 71.1138 36.3231C71.0888 37.1008 71.0888 37.9074 71.1138 38.6851C71.1387 39.2036 70.9389 39.3476 70.5142 39.3476C69.29 39.3188 68.0408 39.3476 66.8167 39.3188C66.392 39.3188 66.1921 39.4052 66.1921 39.9813C66.2171 41.8824 66.2171 43.7547 66.1921 45.6558C66.1921 46.2031 66.367 46.3471 66.8167 46.3471C69.315 46.3183 71.8133 46.3471 74.3366 46.3471C74.5864 46.3471 74.8362 46.4047 75.2359 46.4335C74.8862 47.0961 74.5614 47.5857 74.3366 48.133C73.8869 49.1988 73.1873 49.5444 72.1381 49.5156C68.5155 49.4292 64.893 49.4868 61.2955 49.4868C61.0706 49.4868 60.8458 49.4868 60.6209 49.4868C60.5959 49.4292 60.571 49.3716 60.521 49.314C60.8208 48.9684 61.0956 48.5651 61.4204 48.2482C62.2948 47.4705 62.5196 46.4912 62.5196 45.2526C62.4697 40.4998 62.4946 35.747 62.5196 30.9943C62.5196 30.2165 62.4197 29.554 61.92 28.9491C61.5953 28.4883 61.2955 27.941 60.8957 27.3361Z" fill="white"/>
<path d="M5.35872 21.4885C5.93333 22.3238 6.408 23.0151 6.88268 23.7064C6.85769 23.7641 6.83271 23.8505 6.78274 23.9081C6.08322 23.9081 5.40868 23.9369 4.70916 23.9081C4.28445 23.9081 3.85974 23.8505 3.43503 23.7641C2.88541 23.6488 2.71053 23.9081 2.78548 24.4842C3.08527 26.8462 3.3351 29.2081 3.68486 31.5701C4.28445 35.4875 5.75844 39.0305 7.78206 42.2278C8.23175 42.948 8.43162 43.6681 8.38165 44.561C8.33169 45.2235 8.38165 45.886 8.28172 46.6061C5.28377 43.6681 3.03531 40.1539 1.61128 35.9484C-0.187493 30.6484 -0.337391 25.1755 0.462063 19.501C0.786841 19.6738 1.01169 19.789 1.23653 19.9042C3.485 21.1716 5.78343 21.6901 8.20677 20.6532C13.5531 18.3776 14.6274 10.802 11.1548 7.02856C11.0548 6.91334 10.9799 6.76932 10.805 6.51008C11.0798 6.48128 11.2797 6.45247 11.4546 6.45247C15.7266 6.45247 19.9737 6.45247 24.2458 6.42367C24.8454 6.42367 25.0203 6.6253 25.0203 7.31661C24.9703 9.1313 25.1952 8.87206 23.6212 8.87206C21.2479 8.87206 18.8495 8.87206 16.4761 8.87206C15.7266 8.87206 15.7016 8.87206 15.7766 9.70739C15.9515 12.0982 15.8765 14.489 15.252 16.7933C14.8272 18.4064 14.0778 19.789 13.0784 20.9988C12.9036 21.2004 12.5538 21.2869 12.279 21.3157C10.7051 21.3445 9.10616 21.3157 7.53223 21.3445C6.83271 21.3733 6.18315 21.4309 5.35872 21.4885Z" fill="white"/>
<path d="M103.717 3.45682C103.592 3.65845 103.542 3.74486 103.492 3.80247C102.417 4.63781 102.268 5.8188 102.293 7.20142C102.343 11.5221 102.343 15.8716 102.293 20.1923C102.293 21.0276 102.442 21.6902 103.017 22.2086C103.367 22.5255 103.692 22.8711 104.016 23.188C103.966 23.2744 103.941 23.3608 103.891 23.4472C103.692 23.476 103.492 23.5048 103.292 23.5048C102.168 23.5048 101.068 23.476 99.9442 23.5336C99.3696 23.5625 99.0198 23.4184 99.1447 22.6695C99.1697 22.5831 99.1197 22.4679 99.0698 22.295C98.9449 22.3527 98.8449 22.4103 98.745 22.4679C96.3716 24.2826 93.8233 24.4554 91.2751 23.1592C89.6012 22.295 88.6019 20.7396 88.552 18.5504C88.477 14.5178 88.4021 10.4851 88.4021 6.4525C88.4021 5.47314 88.2022 4.69542 87.5276 4.11932C87.3778 4.00411 87.2528 3.80247 87.053 3.54323C87.3528 3.51443 87.5277 3.48562 87.7275 3.48562C88.7518 3.48562 89.7511 3.51443 90.7754 3.45682C91.3001 3.42801 91.45 3.62964 91.425 4.23454C91.4 8.18078 91.425 12.127 91.4 16.0732C91.375 19.6162 93.5236 21.4597 96.6964 20.5956C98.6201 20.0771 99.3446 19.0113 99.3446 16.7358C99.3446 12.5591 99.3446 8.38241 99.3446 4.23454C99.3446 3.62964 99.4945 3.45682 100.019 3.45682C101.018 3.48562 102.018 3.45682 103.017 3.45682C103.217 3.39921 103.392 3.42801 103.717 3.45682Z" fill="white"/>
<path d="M70.5391 23.476C69.19 23.476 67.866 23.5048 66.5169 23.4472C66.317 23.4472 66.0672 23.0439 65.9673 22.7559C65.2428 20.826 64.5432 18.8961 63.8937 16.9374C63.6688 16.246 63.3191 15.9868 62.6695 16.0156C61.2205 16.0732 59.7715 16.0732 58.3225 16.0156C57.7729 15.9868 57.523 16.246 57.3232 16.7933C56.6486 18.7809 55.9491 20.7684 55.2995 22.7847C55.1247 23.3032 54.8748 23.5048 54.4002 23.476C53.6507 23.4184 52.8762 23.476 52.0268 23.476C52.1017 23.1592 52.1267 22.9287 52.2017 22.7271C54.2253 17.1102 56.2239 11.4933 58.2725 5.87637C58.4724 5.30028 58.4224 4.92582 58.0227 4.55136C57.6979 4.26332 57.4481 3.88885 57.0733 3.45678C57.3731 3.42798 57.573 3.37037 57.7729 3.37037C59.1719 3.37037 60.546 3.39918 61.945 3.34157C62.4696 3.34157 62.7445 3.572 62.9443 4.11929C64.818 9.41935 66.7167 14.7194 68.5655 20.0195C68.9152 21.0276 69.3649 21.9206 70.0645 22.6119C70.2643 22.8135 70.4392 23.0439 70.6141 23.2744C70.5891 23.3608 70.5641 23.4184 70.5391 23.476ZM60.6709 7.97911C60.6209 7.97911 60.5709 7.97911 60.496 7.97911C59.9214 9.62098 59.3218 11.2628 58.6972 12.9911C59.9464 12.9911 61.0706 12.9911 62.2948 12.9911C61.7451 11.2628 61.1955 9.62098 60.6709 7.97911Z" fill="white"/>
<path d="M38.0364 23.1593C38.3861 22.8425 38.7859 22.5833 39.0607 22.18C39.3105 21.8055 39.5603 21.287 39.5603 20.8262C39.5853 16.1886 39.5354 11.5511 39.5603 6.91353C39.5603 5.84776 39.3855 5.01243 38.636 4.37872C38.3861 4.17709 38.1363 3.94666 37.8865 3.74502C37.9364 3.65861 37.9614 3.5722 38.0114 3.48578C38.2113 3.45698 38.4111 3.39937 38.586 3.39937C42.2585 3.39937 45.931 3.39937 49.6035 3.37056C50.1281 3.37056 50.278 3.5722 50.253 4.14829C50.228 5.30047 50.253 6.45266 50.228 7.60484C50.228 7.83528 50.2031 8.03691 50.2031 8.26735C50.1531 8.29616 50.1031 8.35377 50.0532 8.38257C49.8033 8.03692 49.5285 7.72006 49.3037 7.37441C48.804 6.59668 48.1295 6.27983 47.33 6.27983C45.906 6.27983 44.482 6.30863 43.0579 6.30863C42.7082 6.30863 42.5583 6.45266 42.5833 6.85593C42.5833 8.00811 42.6082 9.1603 42.5833 10.3125C42.5833 10.7734 42.7332 10.9462 43.1329 10.9462C44.2321 10.9174 45.3314 10.9462 46.4057 10.9462C46.8304 10.9462 47.0052 11.0902 47.0052 11.6087C46.9803 12.2712 46.9803 12.9049 47.0052 13.5674C47.0302 13.9995 46.8553 14.1723 46.4806 14.1723C45.4063 14.1723 44.3321 14.2011 43.2578 14.1723C42.8081 14.1723 42.6332 14.3163 42.6582 14.8636C42.6832 16.4767 42.6832 18.1185 42.6582 19.7316C42.6332 20.3653 42.8581 20.4805 43.3577 20.4805C45.7311 20.4517 48.0795 20.4805 50.4529 20.4805C50.6777 20.4805 50.9026 20.4805 51.3023 20.4805C50.9525 21.5463 50.6528 22.468 50.328 23.361C50.278 23.4762 50.0781 23.5626 49.9282 23.5626C46.1059 23.5626 42.3085 23.5626 38.4861 23.5626C38.3861 23.5626 38.3112 23.505 38.2113 23.4762C38.1363 23.3322 38.0863 23.2458 38.0364 23.1593Z" fill="white"/>
<path d="M118.981 20.6242C118.332 21.5172 117.682 22.4101 117.007 23.2743C116.908 23.4183 116.658 23.4759 116.483 23.4759C112.985 23.5047 109.488 23.5047 105.99 23.5047C105.865 23.5047 105.74 23.4471 105.465 23.3895C105.815 22.9862 106.065 22.6406 106.365 22.3525C106.814 21.8916 106.989 21.3443 106.989 20.6818C106.964 15.9579 106.964 11.2051 106.989 6.48115C106.989 5.73223 106.839 5.12734 106.315 4.63766C105.99 4.32081 105.69 3.97515 105.365 3.6583C105.39 3.60069 105.415 3.54308 105.44 3.45667C105.59 3.42786 105.765 3.39906 105.915 3.39906C109.563 3.39906 113.235 3.39906 116.883 3.39906C117.707 3.39906 117.707 3.39906 117.682 4.32081C117.682 5.38658 117.682 6.45235 117.682 7.48932C117.682 7.71975 117.657 7.92138 117.657 8.32465C117.357 8.0366 117.107 7.86378 116.982 7.63334C116.283 6.50996 115.359 6.19311 114.184 6.27952C113.01 6.39474 111.811 6.30833 110.612 6.27952C110.162 6.27952 109.987 6.45235 110.012 6.97083C110.037 8.06541 110.037 9.18879 110.012 10.2834C110.012 10.7442 110.162 10.9171 110.562 10.9171C111.636 10.8883 112.71 10.9459 113.785 10.8883C114.309 10.8595 114.484 11.0899 114.434 11.666C114.409 12.2133 114.409 12.7894 114.434 13.3655C114.459 13.9127 114.284 14.1432 113.81 14.1144C112.785 14.0856 111.736 14.1144 110.712 14.0856C110.262 14.0856 110.087 14.2296 110.112 14.7769C110.137 16.3899 110.137 18.0318 110.112 19.6449C110.112 20.221 110.287 20.365 110.762 20.365C113.285 20.3362 115.808 20.365 118.332 20.365C118.531 20.365 118.756 20.3938 118.956 20.3938C118.931 20.4802 118.956 20.5666 118.981 20.6242Z" fill="white"/>
<path d="M129.099 6.45227C126.076 10.4273 125.776 14.46 128.699 18.2622C131.747 22.266 135.495 21.6611 139.267 19.5872C141.191 23.0437 139.042 37.5325 136.119 40.5858C135.595 39.8945 135.045 39.232 134.595 38.483C134.47 38.2526 134.52 37.7917 134.62 37.4749C135.22 35.2857 135.969 33.1542 136.419 30.9074C136.869 28.603 136.994 26.2411 137.294 23.7351C136.569 23.7927 135.969 23.7639 135.37 23.8791C134.82 23.9655 134.52 23.8215 134.62 23.1302C134.695 22.5829 134.371 22.4388 134.046 22.266C132.072 21.3155 129.974 21.0274 127.85 20.941C127.001 20.9122 126.426 20.5377 125.976 19.7312C125.077 18.0893 124.452 16.3899 124.502 14.4024C124.527 13.7398 124.302 13.0773 124.277 12.4148C124.227 11.5795 124.252 10.7154 124.277 9.85122C124.302 8.87186 124.327 8.87186 123.478 8.87186C122.179 8.87186 120.905 8.84306 119.606 8.87186C119.156 8.87186 118.981 8.72784 118.981 8.18055C119.006 6.07781 118.781 6.45227 120.43 6.42347C123.028 6.39466 125.627 6.42347 128.225 6.42347C128.45 6.45227 128.674 6.45227 129.099 6.45227Z" fill="white"/>
<path d="M24.3708 22.8134C24.6706 22.5541 24.9954 22.2661 25.2952 22.0068C25.7948 21.546 26.0197 20.9411 26.0197 20.2497C26.0197 14.7481 26.0197 9.24637 25.9697 3.74469C25.9697 3.37023 25.7698 2.93816 25.545 2.62131C25.2702 2.21804 24.8704 1.87239 24.5207 1.52673C24.5457 1.46912 24.5706 1.38271 24.5956 1.3251C24.7955 1.29629 24.9954 1.26749 25.1952 1.26749C26.4694 1.26749 27.7435 1.29629 29.0176 1.26749C29.5672 1.23868 29.7171 1.44032 29.7171 2.07402C29.6921 7.89255 29.7171 13.7111 29.6922 19.5296C29.6922 20.4514 29.6921 20.4514 30.4916 20.4514C32.79 20.4514 35.0635 20.4514 37.3619 20.4514C37.5618 20.4514 37.7616 20.4514 37.9865 20.4514C38.0115 20.509 38.0364 20.5666 38.0864 20.653C37.7616 21.0563 37.3869 21.4019 37.1121 21.834C36.3626 22.9574 35.4382 23.2742 34.2141 23.2454C31.1661 23.159 28.1182 23.2166 25.0703 23.2166C24.8954 23.2166 24.7205 23.1878 24.5707 23.1878C24.4957 23.015 24.4457 22.8998 24.3708 22.8134Z" fill="white"/>
<path d="M59.5967 1.84374C62.3198 -0.2878 75.8605 -0.691065 78.4088 1.26765C78.159 1.32526 77.9591 1.35406 77.7592 1.41167C76.8099 1.67092 75.8605 1.93016 74.9112 2.16059C74.1617 2.33342 73.3872 2.53505 72.6128 2.53505C69.7897 2.44864 66.9916 2.36223 64.1935 2.93832C63.8687 2.99593 63.6439 2.99593 63.519 2.53505C63.3441 1.90135 62.8444 1.84374 62.3698 1.84374C61.4954 1.84374 60.596 1.84374 59.5967 1.84374Z" fill="white"/>
<path d="M34.4639 6.45236C35.5381 6.45236 36.6124 6.45236 37.6867 6.45236C38.0864 6.45236 38.2863 6.56758 38.2863 7.08607C38.3112 8.90076 38.3362 8.90076 36.7623 8.90076C34.9385 8.90076 33.1148 8.87195 31.316 8.90076C30.8663 8.90076 30.6914 8.72793 30.7164 8.20945C30.7664 6.10671 30.4916 6.50997 32.1654 6.48117C32.9399 6.42356 33.6894 6.45236 34.4639 6.45236Z" fill="white"/>
<path d="M57.2733 5.15642C56.9235 5.38686 56.5987 5.55968 56.3239 5.76132C55.0998 6.65426 53.8506 7.57601 52.6265 8.46895C52.4766 8.58417 52.3516 8.7282 52.2017 8.81461C51.6021 9.10266 51.3523 8.90102 51.3773 8.1809C51.4273 5.61729 51.0775 6.3086 52.9262 5.09881C53.7507 4.55152 54.6001 4.06184 55.4245 3.48575C55.8493 3.1977 56.1241 3.28412 56.3989 3.74499C56.6237 4.20587 56.9235 4.63794 57.2733 5.15642Z" fill="white"/>
<path d="M95.2472 8.87186C94.4978 8.87186 93.7733 8.87186 93.0238 8.87186C92.674 8.87186 92.5241 8.72784 92.5241 8.32457C92.5491 5.9914 92.2993 6.48108 94.0231 6.42347C95.1223 6.39466 96.2466 6.42347 97.3458 6.42347C97.7455 6.42347 97.8954 6.56749 97.8954 7.05717C97.9454 8.87186 97.9454 8.87186 96.3465 8.87186C95.9717 8.87186 95.597 8.87186 95.2472 8.87186Z" fill="white"/>
<path d="M119.256 13.0198C120.28 13.0198 120.98 13.9416 120.98 15.2666C120.98 16.6204 120.23 17.4269 119.006 17.4557C117.882 17.4845 117.132 16.534 117.132 15.1225C117.132 13.8263 117.907 13.0486 119.256 13.0198ZM119.955 15.209C119.955 14.5465 119.556 14.0568 119.056 14.028C118.506 13.9992 118.082 14.5177 118.107 15.209C118.107 15.8715 118.506 16.3323 119.031 16.3323C119.581 16.3323 119.955 15.8715 119.955 15.209Z" fill="white"/>
<path d="M116.683 8.90064C116.283 8.90064 115.883 8.90064 115.508 8.90064C114.384 8.90064 113.26 8.90064 112.111 8.90064C111.711 8.90064 111.436 8.78543 111.461 8.20933C111.486 7.69085 111.711 7.51802 112.136 7.51802C113.185 7.54683 114.234 7.51802 115.283 7.51802C115.958 7.51802 116.408 7.97889 116.683 8.90064Z" fill="white"/>
<path d="M104.691 8.87194C103.192 8.84314 103.367 9.18879 103.367 7.34529C103.367 6.45235 103.367 6.45235 104.141 6.45235C104.566 6.45235 104.991 6.48115 105.44 6.45235C105.89 6.42354 106.04 6.62518 106.015 7.11486C106.015 7.17247 106.015 7.25888 106.015 7.31649C105.99 9.15998 106.215 8.84314 104.691 8.87194Z" fill="white"/>
<path d="M121.354 13.1351C122.104 13.1351 122.803 13.0775 123.478 13.1639C123.678 13.1927 123.803 13.7112 124.053 14.1433C123.528 14.1433 123.203 14.1145 122.878 14.1433C122.753 14.1433 122.654 14.2873 122.529 14.3737C122.629 14.4889 122.728 14.6329 122.853 14.6618C123.028 14.7194 123.253 14.6329 123.428 14.6906C123.578 14.7482 123.753 14.921 123.778 15.0938C123.803 15.1802 123.578 15.4971 123.478 15.4683C122.554 15.3243 122.454 15.9292 122.554 16.7645C122.579 17.1101 122.479 17.3118 122.129 17.283C121.879 17.2542 121.629 17.283 121.354 17.283C121.829 15.958 121.829 14.633 121.354 13.1351Z" fill="white"/>
<path d="M130.123 45.1371C130.573 45.8284 130.598 46.5198 130.123 47.0958C128.974 48.4785 127.475 48.8241 125.851 48.7377C126.576 48.1616 127.325 47.6431 128.05 47.0382C128.724 46.4621 129.399 45.7996 130.123 45.1371Z" fill="white"/>
<path d="M49.1038 8.90064C48.5542 8.90064 48.1295 8.90064 47.7048 8.90064C46.6805 8.90064 45.6312 8.90064 44.6069 8.90064C44.3071 8.90064 43.9823 8.90064 44.0073 8.41096C44.0073 7.95008 44.3071 7.89247 44.6319 7.89247C45.7561 7.89247 46.8803 7.89247 48.0046 7.89247C48.5292 7.89247 48.804 8.23813 49.1038 8.90064Z" fill="white"/>
<path d="M87.2528 8.23825C85.6539 7.54693 85.0543 6.04909 85.8287 4.75288C87.0779 5.473 87.5526 6.62519 87.2528 8.23825Z" fill="white"/>
<path d="M119.955 15.209C119.955 15.8715 119.581 16.3323 119.031 16.3323C118.481 16.3323 118.107 15.8715 118.107 15.209C118.107 14.5177 118.506 14.028 119.056 14.028C119.556 14.0568 119.955 14.5465 119.955 15.209Z" fill="white"/>
</svg>
