<svg width="105" height="61" viewBox="0 0 105 61" fill="none" xmlns="http://www.w3.org/2000/svg">
<path d="M6.82756 0.214827C6.08773 0.436244 5.53579 0.739234 5.12477 1.24033C4.5376 1.93954 4.51411 2.04442 4.56108 4.13039C4.58457 5.3307 4.58457 7.45164 4.56108 8.88501C4.5376 11.4488 4.5376 11.4488 4.05612 11.2973C3.09316 10.971 0.791453 11.1225 0.403921 11.542C0.0751058 11.8916 0.0751058 11.8916 0.450895 11.7634C0.732736 11.6818 0.826683 11.7168 0.756223 11.8916C0.709249 12.0431 0.533098 12.148 0.403921 12.113C0.251257 12.0897 0.15731 12.4859 0.15731 13.1968C0.15731 13.8261 0.0868492 14.7001 0.0281322 15.108C-0.0540716 15.7139 0.0281322 15.982 0.486125 16.4598C1.01458 17.0191 1.19073 17.0658 2.76434 17.0658C4.23227 17.0658 4.49062 17.1357 4.58457 17.4387C4.71375 17.9398 4.56108 42.7384 4.43191 43.088C4.36145 43.2861 3.86822 43.3676 2.91701 43.3676C1.96579 43.3676 1.27293 43.4958 0.838427 43.7406C0.180796 44.1368 0.15731 44.1717 0.133823 45.8731C0.0868492 49.3342 0.180797 49.4624 2.9405 49.4624H4.78421L4.71375 53.6344C4.63154 59.5077 4.79595 59.7641 9.04706 59.9972C15.3533 60.3235 33.8139 60.4516 36.8437 60.1953C37.9006 60.1137 38.8401 60.0904 39.8617 60.1137C41.2827 60.137 41.635 60.1137 41.8933 59.869C42.1165 59.6942 42.1987 59.6942 42.1987 59.869C42.1987 59.9972 42.3044 60.1137 42.4218 60.1137C42.551 60.1137 42.6449 59.9156 42.6449 59.6592C42.6449 59.4145 42.5627 59.2863 42.4218 59.3562C42.3161 59.4261 42.1987 59.3795 42.1987 59.2513C42.1987 58.8551 42.7271 59.1231 42.962 59.6475C43.1851 60.1253 43.2438 60.1253 48.1056 60.1253C50.8183 60.1253 54.541 60.1953 56.3847 60.2535C61.3522 60.4516 69.138 60.172 69.138 59.7757C69.138 59.6009 69.2437 59.4727 69.3846 59.4727C69.5138 59.4727 69.5843 59.6242 69.4903 59.799C69.4081 60.0787 69.643 60.1253 71.0639 60.1253C71.9799 60.1487 77.0413 60.172 82.3259 60.1953C87.5869 60.2186 91.8263 60.172 91.7676 60.0671C91.7206 59.9855 91.838 59.9156 92.0259 59.9156C92.249 59.9156 92.3078 60.0205 92.2255 60.172C91.9672 60.5798 97.698 60.2419 98.6609 59.7641C100.258 58.9833 100.352 58.657 100.364 53.9373C100.387 51.6067 100.446 49.5673 100.54 49.3692C100.622 49.1128 100.798 49.0662 101.151 49.1711C101.785 49.3925 104.169 49.276 104.615 49.0429C104.897 48.8681 104.873 48.8448 104.544 48.8215C104.298 48.8215 104.169 48.7166 104.239 48.5418C104.286 48.4136 104.439 48.2971 104.544 48.3204C104.826 48.3903 105.049 44.9059 104.803 44.4747C104.274 43.5424 104.192 43.4958 102.196 43.3909L100.199 43.2861L100.152 30.1759L100.082 17.0891H102.031C103.828 17.0891 103.981 17.0424 104.509 16.4831C104.967 16.0053 105.061 15.7489 104.967 15.1313C104.897 14.7234 104.838 13.8494 104.838 13.2434C104.838 12.5092 104.756 12.113 104.591 12.1596C104.462 12.1829 104.286 12.0781 104.239 11.9149C104.169 11.7401 104.263 11.6935 104.544 11.7867C104.897 11.9149 104.897 11.8916 104.615 11.5886C104.263 11.2157 102.102 11.0409 101.115 11.3089C100.129 11.5653 100.047 11.3322 99.9057 7.41668C99.6591 1.36852 99.2011 0.506164 96.2066 0.587739C95.3258 0.611046 94.5038 0.564432 94.3628 0.506164C94.128 0.296402 90.4053 0.0400254 88.5264 0.0400254C87.7983 0.0633323 86.53 0.0633323 85.6845 0.0633323C84.8507 0.0633323 80.5174 0.109946 76.0431 0.133253C71.5924 0.15656 67.1064 0.203174 66.073 0.238134C65.0396 0.273095 63.7713 0.319709 63.2311 0.308055C54.7289 0.179867 47.6828 0.133253 47.307 0.226481C47.0252 0.296402 46.8256 0.42459 46.8725 0.506164C46.896 0.587739 46.8256 0.680966 46.6964 0.704273C46.5907 0.750887 46.4733 0.634353 46.4733 0.482857C46.4733 0.284748 45.4164 0.226481 41.9873 0.226481C38.4995 0.226481 37.5248 0.296402 37.5365 0.482857C37.5835 0.634353 37.4543 0.762541 37.2547 0.762541C37.0786 0.762541 36.9729 0.680966 37.0316 0.564432C37.2899 0.168214 35.869 0.109946 25.8871 0.109946C20.3442 0.109946 14.038 0.0633323 11.8655 0.0283719C8.98834 -0.041549 7.61437 0.0167184 6.82756 0.214827ZM51.3468 6.09983C81.3277 6.14645 91.2508 6.07653 91.2508 5.90172C91.2508 5.70361 91.3213 5.72692 91.427 5.90172C91.5092 6.05322 92.0846 6.20471 92.6718 6.22802L93.7639 6.29794L93.7874 7.38171C93.8344 9.11808 94.1162 26.6799 94.0928 27.0528C94.0223 28.9057 94.0928 42.8782 94.1984 47.7493C94.3041 52.6205 94.2806 54.0073 94.0693 54.1355C93.9166 54.217 93.0828 54.2636 92.249 54.2403C90.6284 54.1704 84.7098 54.1704 62.0215 54.1937C50.2546 54.217 48.728 54.2636 48.8337 54.5433C48.9159 54.7647 48.8102 54.8696 48.5284 54.8696C48.2465 54.8696 48.1291 54.7647 48.223 54.5433C48.3287 54.2636 46.9548 54.2403 37.2077 54.2403C31.1012 54.2636 24.29 54.3219 22.0705 54.3918C19.8745 54.4734 18.0895 54.4734 18.0895 54.3685C18.0895 54.1121 17.3262 54.1937 17.0326 54.4734C16.8329 54.6715 16.7038 54.6948 16.5981 54.52C16.5159 54.3452 15.459 54.2636 13.7327 54.2403C12.2413 54.217 10.926 54.1588 10.8438 54.0888C10.7381 54.0189 10.6442 53.2032 10.6442 52.2243C10.6442 50.7676 10.5972 50.5112 10.3153 50.6161C10.0922 50.6977 9.98653 50.5928 9.98653 50.3131C9.98653 50.0334 10.0922 49.9169 10.3153 50.0101C10.5972 50.115 10.6442 49.1594 10.6677 42.2489C10.7499 16.25 10.7499 16.553 10.4445 16.4481C10.2684 16.3782 10.2214 16.2966 10.3741 16.2034C10.7029 16.0053 10.7499 13.3833 10.4445 12.416C10.2919 11.9848 10.2449 11.507 10.3623 11.3555C10.4445 11.2041 10.5385 9.98044 10.5854 8.6869C10.6089 7.35841 10.6324 6.16975 10.6324 5.99495C10.6559 5.79684 10.7851 5.75023 11.0434 5.89007C11.2431 5.97164 29.3866 6.07653 51.3468 6.09983Z" fill="white"/>
<path d="M80.1535 11.577L75.4913 11.6236L74.6341 12.451C73.906 13.1502 73.7533 13.4299 73.6476 14.4554C73.401 16.5181 73.401 19.4081 73.6006 24.0229C73.7063 26.4818 73.7768 28.8708 73.7298 29.3485C73.6828 29.8263 73.6476 33.8235 73.6476 38.2635L73.6241 46.3043L74.1526 47.1551C74.4344 47.6095 74.9864 48.1106 75.3739 48.2854C76.2546 48.6584 85.0504 48.7399 86.213 48.3903C87.2817 48.064 88.139 46.9803 88.2681 45.7799C88.4913 43.6707 88.3973 27.6122 88.1625 27.0062L87.9158 26.4235H84.9095C82.8779 26.4235 81.821 26.5051 81.6449 26.6799C81.4687 26.8547 81.3865 27.7054 81.3865 29.0222V31.1082L82.0441 31.4811L82.7018 31.8773L82.7253 34.3129C82.7253 35.6647 82.7253 37.8323 82.7018 39.1841C82.6783 40.6408 82.7722 41.7711 82.9249 42.0042C83.1011 42.2839 83.1245 42.5636 82.9484 42.9831C82.7253 43.5658 82.7018 43.5658 81.0694 43.4842C79.2022 43.4026 78.8617 43.2628 79.2022 42.8316C79.4489 42.5286 79.5545 27.3325 79.3549 20.1889L79.2492 16.6929L80.8228 16.6113C83.1715 16.5064 83.148 16.4831 83.148 18.0447C83.148 18.8021 83.2537 19.5014 83.4064 19.6529C83.606 19.851 83.606 19.9092 83.4064 19.9092C82.9249 19.9092 83.1245 20.5152 83.653 20.6317C84.4398 20.7832 87.5283 20.6551 87.7514 20.4336C87.8336 20.3288 87.9746 18.6507 88.0333 16.6929L88.1155 13.1269L87.5048 12.5209C86.9764 11.9965 86.5184 11.8217 85.0505 11.5886C84.9095 11.542 82.69 11.542 80.1535 11.577ZM17.5611 11.9965C17.3615 12.1946 17.3028 13.4299 17.3615 16.4481C17.432 21.3193 17.4085 20.9464 17.6668 20.5385C17.843 20.2821 17.89 20.3404 17.89 20.7949C17.89 21.0979 17.7843 21.4009 17.6316 21.4475C17.432 21.5174 17.3733 22.4497 17.3733 24.6872C17.3498 27.4024 17.3028 27.9035 16.974 28.2298C16.6452 28.5328 16.5747 29.0106 16.5747 31.015C16.5747 32.3435 16.6452 33.3573 16.7274 33.2991C16.927 33.101 17.6668 33.7769 17.6668 34.1731C17.6668 34.3246 17.5964 34.4528 17.5142 34.4528C17.4085 34.4528 17.3145 37.4361 17.2676 41.0836C17.2441 44.7311 17.3145 47.7144 17.3967 47.7144C17.5024 47.7144 17.7021 47.9591 17.8312 48.2621C18.0779 48.7865 18.1601 48.8098 20.2621 48.8098C23.5033 48.8098 23.3272 49.2061 23.2684 41.2934C23.2215 37.8323 23.1862 34.9073 23.1393 34.7907C22.8927 33.8584 23.0101 33.8118 26.1221 33.8118C29.4924 33.8118 30.7607 33.5671 31.5123 32.7863L32.0173 32.2386L32.0877 22.8109C32.1347 16.4598 32.0642 13.2201 31.9116 12.9405C31.3596 11.9383 30.7725 11.8567 24.0905 11.7868C19.4636 11.7518 17.7256 11.7984 17.5611 11.9965ZM26.2043 17.2056C26.2278 17.427 26.2278 19.7461 26.2513 22.3798C26.2513 25.0135 26.3217 26.9829 26.357 26.7731C26.5331 26.1205 26.8619 26.3769 26.8619 27.181C26.8619 27.8103 26.7915 27.9385 26.5096 27.8336C26.263 27.752 26.2043 27.8103 26.2865 28.09C26.3922 28.4163 26.263 28.4629 24.9477 28.393C24.114 28.3463 23.3741 28.1715 23.198 28.02C22.8457 27.6704 22.8222 27.0412 23.151 27.0412C23.3037 27.0412 23.3506 25.5146 23.2567 22.0651C23.2097 19.3266 23.2097 17.0192 23.2802 16.9609C23.3624 16.891 24.0435 16.8327 24.8186 16.8327C25.9929 16.8444 26.2043 16.9026 26.2043 17.2056ZM36.3036 11.9266C35.9278 12.3578 36.057 17.1823 36.4563 17.1007C36.5855 17.0774 36.7146 17.2056 36.7146 17.3804C36.7146 17.5552 36.5855 17.6834 36.4563 17.6368C36.2566 17.6135 36.1509 17.9631 36.104 18.7439C36.057 19.6529 36.104 19.8743 36.3271 19.7461C36.5502 19.6179 36.5502 19.6412 36.3741 19.8976C36.0218 20.3521 35.7869 44.9759 36.1157 46.4325C36.3154 47.2133 36.5502 47.6328 37.1022 48.0174L37.8302 48.5768L43.5728 48.4952C49.9729 48.4136 50.4309 48.2971 51.1238 46.9686C51.6053 46.0363 51.8049 38.7063 51.6875 25.9457C51.6405 20.7483 51.6053 15.5741 51.6053 14.4904C51.6053 13.2318 51.5231 12.4277 51.3587 12.3112C51.206 12.2412 51.0533 12.2879 51.0063 12.416C50.9007 12.789 50.5249 12.7423 50.5249 12.3461C50.5249 12.0897 50.1726 12.0198 48.6577 12.0198C45.6514 12.0198 45.8745 11.2973 45.898 21.3193C45.9215 25.9457 45.9802 31.0383 46.0506 32.5999C46.1563 34.6625 46.1211 35.4899 45.9449 35.4899C45.5457 35.4899 45.6631 36.3173 46.0976 36.5504C46.356 36.7252 46.4029 36.8301 46.2033 36.9466C46.0506 37.0748 45.9215 38.1469 45.8745 40.093C45.804 42.6102 45.7453 43.1346 45.4165 43.4609C45.0407 43.8338 45.0055 43.8338 44.7354 43.4609C44.4066 43.053 43.4906 42.9831 42.8329 43.3327C42.1753 43.659 41.4942 43.0297 41.6703 42.2489C41.823 41.5963 41.9287 23.5568 41.823 17.0192L41.7408 12.5442L40.8013 12.0431C40.1672 11.6935 39.7092 11.5653 39.4391 11.6935C39.0281 11.8683 37.5602 11.8683 36.926 11.6702C36.7264 11.6702 36.4563 11.7518 36.3036 11.9266ZM55.8211 11.9033C55.5745 12.2296 55.4923 20.119 55.7389 21.1795C55.8446 21.5873 55.8446 22.6128 55.7859 23.4635C55.7037 24.3142 55.7154 25.095 55.8329 25.2465C56.1147 25.5961 55.8329 26.4002 55.4336 26.4002C55.2575 26.4002 55.1753 26.5051 55.234 26.6216C55.3044 26.7498 55.2105 26.9945 55.0343 27.181C54.6351 27.5772 54.5294 30.6188 54.9052 30.8518C55.0343 30.9218 55.1283 31.1781 55.1283 31.3996C55.1283 31.621 55.234 31.8307 55.3749 31.8773C55.5745 31.9473 55.6332 33.8934 55.6332 39.0093C55.6097 43.0996 55.7037 46.1762 55.8329 46.3393C55.9386 46.4675 55.9386 46.6423 55.8564 46.6889C55.7507 46.7588 55.7037 47.2133 55.7507 47.6911L55.8329 48.5768L61.6811 48.5069C70.3947 48.4369 69.8897 49.0546 69.9132 38.3567C69.9132 31.1665 69.8897 30.8402 69.4787 30.3974C68.1634 28.9873 68.0108 28.7193 68.3631 28.5328C69.2438 28.055 69.4552 27.0528 69.5022 23.7898C69.5257 22.0535 69.5727 18.8954 69.6079 16.7744C69.6783 13.1269 69.6549 12.8822 69.2086 12.4743C68.5275 11.7984 67.5058 11.6702 61.5637 11.6469C57.4182 11.6469 55.9973 11.6935 55.8211 11.9033ZM64.018 16.8677C64.1472 17.0891 64.1472 18.7322 64.018 25.1067C63.9945 26.6916 63.8889 26.7848 62.2448 26.5168L61.3053 26.3886L61.1761 24.5007C61.1057 23.4519 61.047 22.4613 61.0235 22.2865C61.0235 22.1117 61.0939 20.7599 61.1761 19.2916L61.3288 16.6346H62.5971C63.2899 16.623 63.9241 16.7278 64.018 16.8677ZM63.9241 32.1454C64.0063 32.2736 64.1002 33.9517 64.1002 35.8628C64.1002 37.774 64.1237 40.2329 64.1237 41.34C64.1472 42.4237 64.1002 43.4259 64.018 43.5308C63.8419 43.8105 61.5637 43.7056 61.1879 43.3793C60.9413 43.1812 60.906 42.9248 61.0352 42.3305C61.1409 41.8993 61.2348 39.4405 61.2348 36.8534C61.2348 32.8096 61.2818 32.1337 61.5871 31.924C61.9982 31.621 63.6892 31.7725 63.9241 32.1454Z" fill="white"/>
</svg>
