<svg xmlns="http://www.w3.org/2000/svg" width="57" height="31" viewBox="0 0 57 31" fill="none"><path d="M33.4434 19.0204H29.8296V8.17884H33.4434V11.7927L35.6485 8.17884H39.6911L36.0772 13.6302L39.6911 19.0816H35.6485L33.4434 15.4678V19.0204ZM54.1465 10.9964H56.1678V8.17884H48.5113V10.9964H50.5326V19.0204H54.1465V10.9964V10.9964ZM47.7151 16.2028H43.6724V14.9778H46.8575V12.2215H43.6724V10.9964H47.7151V8.17884H40.0586V19.0204H47.7151V16.2028ZM7.65646 27.9019H3.61385V19.8167H0V30.6582H7.65646V27.9019ZM16.1092 27.9019H12.0666V26.6768H15.2517V23.8593H12.0666V22.6342H16.1092V19.8167H8.45273V30.6582H16.1092V27.9019V27.9019ZM56.1678 27.9019H52.1252V26.6768H55.3103V23.8593H52.1252V22.6342H56.1678V19.8167H48.5113V30.6582H56.1678V27.9019ZM20.9481 13.6302C20.9481 16.7541 18.4368 19.2654 15.3129 19.2654C12.1891 19.2654 9.67776 16.7541 9.67776 13.6302C9.67776 10.5064 12.1891 7.99509 15.3129 7.99509C18.4368 7.99509 20.9481 10.5064 20.9481 13.6302ZM17.3342 13.6302C17.3342 12.5277 16.4154 11.6089 15.3129 11.6089C14.2104 11.6089 13.2916 12.5277 13.2916 13.6302C13.2916 14.7328 14.2104 15.6515 15.3129 15.6515C16.4154 15.6515 17.3342 14.7328 17.3342 13.6302ZM44.1012 26.0643C44.1012 26.7381 43.5499 27.2894 42.8762 27.2894C42.2024 27.2894 41.6511 26.7381 41.6511 26.0643V19.8167H38.0373V26.0643C38.0373 28.6982 40.1811 30.9032 42.8762 30.9032C45.51 30.9032 47.7151 28.7594 47.7151 26.0643V19.8167H44.1012V26.0643ZM29.0333 14.794C28.6658 15.284 27.6858 15.5903 27.012 15.5903C25.9095 15.5903 24.9907 14.6715 24.9907 13.569C24.9907 12.4665 25.9095 11.5477 27.012 11.5477C27.6858 11.5477 28.6658 11.8539 29.0333 12.344V8.17884C28.5433 8.05634 27.5633 7.93384 27.012 7.93384C23.8882 7.93384 21.3768 10.4452 21.3768 13.569C21.3768 16.6928 23.8882 19.2041 27.012 19.2041C27.5633 19.2041 28.482 19.1429 29.0333 18.9591V14.794V14.794ZM9.24901 11.6089C9.24901 13.1402 8.45273 14.4878 7.1052 14.7328L9.86152 19.0204H5.81891L3.61385 15.4065V19.0204H0V8.17884H5.63515C7.65646 8.17884 9.24901 9.58763 9.24901 11.6089ZM5.63515 12.2215C5.63515 11.5477 5.08389 10.9964 4.41012 10.9964H3.61385V13.3852H4.41012C5.08389 13.3852 5.63515 12.8952 5.63515 12.2215ZM23.3369 29.0657H20.5193L20.1518 30.6582H16.5379L20.1518 19.8167H23.7656L27.3795 30.6582H23.7656L23.3369 29.0657V29.0657ZM22.6631 26.2481L21.9281 23.1855L21.1931 26.2481H22.6631V26.2481ZM37.3635 24.288H32.1571V26.9219H33.8109C33.6272 27.2894 33.2597 27.9019 32.1571 27.9019C30.9321 27.9019 29.9521 26.8606 29.9521 25.5131C29.9521 24.043 31.0546 23.1855 32.1571 23.1243C33.3822 23.063 33.8722 23.553 34.2397 23.9205L36.751 21.5317C35.526 20.3067 34.1172 19.6942 32.1571 19.6942C29.0333 19.6942 26.522 22.2055 26.522 25.3293C26.522 28.4531 29.0333 30.9645 32.1571 30.9645C35.4035 30.9645 37.3635 28.6369 37.3635 25.7581V24.288Z" fill="white"></path><path d="M15.6064 0.0630583V4.6537H15V0.0630583H15.6064ZM17.523 2.12822V2.62638H15.4744V2.12822H17.523ZM17.8341 0.0630583V0.561219H15.4744V0.0630583H17.8341Z" fill="white"></path><path d="M19.8104 4.71676C19.5737 4.71676 19.359 4.67683 19.1663 4.59695C18.9757 4.51498 18.8112 4.40042 18.673 4.25328C18.5368 4.10615 18.4321 3.93169 18.3588 3.7299C18.2855 3.52811 18.2488 3.30741 18.2488 3.06779V2.93537C18.2488 2.65791 18.2897 2.41093 18.3714 2.19443C18.4531 1.97583 18.5641 1.79086 18.7044 1.63952C18.8448 1.48818 19.0039 1.37362 19.182 1.29585C19.36 1.21808 19.5444 1.17919 19.735 1.17919C19.978 1.17919 20.1874 1.22123 20.3634 1.30531C20.5414 1.38939 20.687 1.50709 20.8001 1.65843C20.9132 1.80767 20.997 1.98424 21.0515 2.18812C21.1059 2.38991 21.1332 2.61061 21.1332 2.85024V3.11193H18.5944V2.63584H20.5519V2.5917C20.5435 2.44036 20.5121 2.29322 20.4576 2.15029C20.4053 2.00736 20.3215 1.88965 20.2063 1.79716C20.0911 1.70468 19.934 1.65843 19.735 1.65843C19.603 1.65843 19.4815 1.68681 19.3705 1.74356C19.2595 1.79821 19.1642 1.88019 19.0846 1.98949C19.005 2.09879 18.9432 2.23226 18.8992 2.38991C18.8552 2.54756 18.8332 2.72937 18.8332 2.93537V3.06779C18.8332 3.22964 18.8552 3.38203 18.8992 3.52496C18.9453 3.66579 19.0113 3.78981 19.0972 3.897C19.1851 4.0042 19.2909 4.08828 19.4145 4.14924C19.5402 4.21019 19.6826 4.24067 19.8418 4.24067C20.0471 4.24067 20.2209 4.19863 20.3634 4.11456C20.5058 4.03048 20.6305 3.91802 20.7373 3.77719L21.0892 4.0578C21.0159 4.16921 20.9227 4.27535 20.8095 4.37625C20.6964 4.47714 20.5571 4.55912 20.3917 4.62218C20.2283 4.68523 20.0345 4.71676 19.8104 4.71676Z" fill="white"></path><path d="M23.8164 4.07042V2.31424C23.8164 2.17972 23.7892 2.06306 23.7347 1.96427C23.6824 1.86337 23.6028 1.7856 23.496 1.73095C23.3891 1.6763 23.2572 1.64898 23.1001 1.64898C22.9534 1.64898 22.8246 1.6742 22.7136 1.72465C22.6047 1.77509 22.5188 1.8413 22.456 1.92328C22.3952 2.00525 22.3648 2.09354 22.3648 2.18812H21.7836C21.7836 2.06621 21.815 1.94535 21.8778 1.82554C21.9407 1.70573 22.0307 1.59748 22.148 1.50079C22.2674 1.402 22.4099 1.32422 22.5753 1.26747C22.7429 1.20862 22.9293 1.17919 23.1346 1.17919C23.3818 1.17919 23.5996 1.22123 23.7882 1.30531C23.9788 1.38939 24.1275 1.51655 24.2343 1.68681C24.3432 1.85497 24.3977 2.06621 24.3977 2.32055V3.90962C24.3977 4.02312 24.4071 4.14398 24.426 4.2722C24.4469 4.40042 24.4773 4.51077 24.5171 4.60326V4.6537H23.9107C23.8814 4.58644 23.8583 4.49711 23.8416 4.38571C23.8248 4.2722 23.8164 4.1671 23.8164 4.07042ZM23.917 2.58539L23.9233 2.99527H23.3357C23.1702 2.99527 23.0226 3.00893 22.8927 3.03626C22.7628 3.06148 22.6539 3.10037 22.5659 3.15292C22.4779 3.20547 22.4109 3.27168 22.3648 3.35155C22.3188 3.42932 22.2957 3.52076 22.2957 3.62585C22.2957 3.73305 22.3198 3.83079 22.368 3.91908C22.4162 4.00736 22.4884 4.07777 22.5848 4.13032C22.6832 4.18077 22.8037 4.20599 22.9461 4.20599C23.1241 4.20599 23.2812 4.16816 23.4174 4.09249C23.5536 4.01682 23.6614 3.92433 23.741 3.81503C23.8227 3.70573 23.8667 3.59958 23.873 3.49658L24.1212 3.77719C24.1065 3.86548 24.0667 3.96322 24.0018 4.07042C23.9369 4.17761 23.8499 4.28061 23.741 4.3794C23.6342 4.47609 23.5064 4.55702 23.3577 4.62218C23.2111 4.68523 23.0456 4.71676 22.8613 4.71676C22.6309 4.71676 22.4287 4.67157 22.2549 4.58119C22.0831 4.4908 21.949 4.36994 21.8527 4.2186C21.7584 4.06516 21.7113 3.89385 21.7113 3.70468C21.7113 3.52181 21.7469 3.36101 21.8181 3.22228C21.8893 3.08145 21.992 2.96479 22.126 2.87231C22.2601 2.77772 22.4214 2.70625 22.6099 2.65791C22.7984 2.60956 23.0089 2.58539 23.2414 2.58539H23.917Z" fill="white"></path><path d="M26.7353 1.24225V1.68996H24.8973V1.24225H26.7353ZM25.5194 0.413032H26.1007V3.80872C26.1007 3.92433 26.1185 4.01156 26.1541 4.07042C26.1897 4.12927 26.2358 4.16816 26.2923 4.18707C26.3489 4.20599 26.4096 4.21545 26.4746 4.21545C26.5227 4.21545 26.573 4.21125 26.6254 4.20284C26.6798 4.19233 26.7207 4.18392 26.7479 4.17761L26.7511 4.6537C26.705 4.66842 26.6442 4.68208 26.5688 4.69469C26.4955 4.70941 26.4065 4.71676 26.3018 4.71676C26.1593 4.71676 26.0284 4.68839 25.909 4.63163C25.7896 4.57488 25.6943 4.48029 25.6231 4.34787C25.554 4.21335 25.5194 4.03258 25.5194 3.80557V0.413032Z" fill="white"></path><path d="M29.4972 3.86548V1.24225H30.0816V4.6537H29.5254L29.4972 3.86548ZM29.6071 3.14661L29.8491 3.1403C29.8491 3.36731 29.825 3.57751 29.7768 3.77089C29.7307 3.96217 29.6553 4.12822 29.5506 4.26905C29.4458 4.40988 29.3086 4.52023 29.139 4.60011C28.9693 4.67788 28.763 4.71676 28.52 4.71676C28.3545 4.71676 28.2027 4.69259 28.0644 4.64425C27.9283 4.5959 27.811 4.52128 27.7125 4.42039C27.6141 4.3195 27.5376 4.18812 27.4831 4.02627C27.4308 3.86442 27.4046 3.66999 27.4046 3.44298V1.24225H27.9859V3.44929C27.9859 3.60273 28.0026 3.7299 28.0361 3.83079C28.0717 3.92958 28.1189 4.00841 28.1775 4.06726C28.2383 4.12401 28.3053 4.16395 28.3786 4.18707C28.454 4.21019 28.5315 4.22176 28.6111 4.22176C28.8583 4.22176 29.0541 4.17446 29.1987 4.07987C29.3432 3.98318 29.4469 3.85391 29.5097 3.69207C29.5747 3.52811 29.6071 3.3463 29.6071 3.14661Z" fill="white"></path><path d="M31.5489 1.77824V4.6537H30.9676V1.24225H31.5332L31.5489 1.77824ZM32.6109 1.22333L32.6077 1.76563C32.5596 1.75512 32.5135 1.74882 32.4695 1.74672C32.4276 1.74251 32.3794 1.74041 32.325 1.74041C32.1909 1.74041 32.0725 1.76143 31.9699 1.80347C31.8673 1.84551 31.7803 1.90436 31.7091 1.98003C31.6379 2.0557 31.5813 2.14609 31.5395 2.25118C31.4997 2.35418 31.4735 2.46768 31.4609 2.5917L31.2975 2.68628C31.2975 2.48029 31.3174 2.28692 31.3572 2.10615C31.3991 1.92538 31.463 1.76563 31.5489 1.6269C31.6348 1.48607 31.7437 1.37677 31.8756 1.299C32.0097 1.21913 32.1689 1.17919 32.3532 1.17919C32.3951 1.17919 32.4433 1.18445 32.4978 1.19496C32.5522 1.20336 32.5899 1.21282 32.6109 1.22333Z" fill="white"></path><path d="M33.7797 1.24225V4.6537H33.1953V1.24225H33.7797ZM33.1513 0.337362C33.1513 0.242775 33.1796 0.162901 33.2361 0.0977404C33.2948 0.0325801 33.3807 0 33.4938 0C33.6048 0 33.6896 0.0325801 33.7483 0.0977404C33.809 0.162901 33.8394 0.242775 33.8394 0.337362C33.8394 0.427746 33.809 0.505518 33.7483 0.570678C33.6896 0.633736 33.6048 0.665265 33.4938 0.665265C33.3807 0.665265 33.2948 0.633736 33.2361 0.570678C33.1796 0.505518 33.1513 0.427746 33.1513 0.337362Z" fill="white"></path><path d="M35.2941 1.97057V4.6537H34.7129V1.24225H35.2627L35.2941 1.97057ZM35.1559 2.81871L34.914 2.80925C34.9161 2.57593 34.9506 2.36048 35.0176 2.1629C35.0847 1.96322 35.1789 1.78981 35.3004 1.64267C35.4219 1.49553 35.5664 1.38203 35.734 1.30215C35.9037 1.22018 36.0912 1.17919 36.2964 1.17919C36.464 1.17919 36.6148 1.20231 36.7489 1.24855C36.8829 1.2927 36.9971 1.36416 37.0914 1.46295C37.1877 1.56174 37.261 1.68996 37.3113 1.84761C37.3616 2.00315 37.3867 2.19338 37.3867 2.41829V4.6537H36.8023V2.41198C36.8023 2.23332 36.7761 2.09038 36.7237 1.98318C36.6714 1.87388 36.5949 1.79506 36.4944 1.74672C36.3938 1.69627 36.2703 1.67105 36.1236 1.67105C35.9791 1.67105 35.8471 1.70152 35.7277 1.76248C35.6104 1.82344 35.5088 1.90751 35.423 2.01471C35.3392 2.12191 35.2732 2.24488 35.225 2.3836C35.1789 2.52023 35.1559 2.66527 35.1559 2.81871Z" fill="white"></path><path d="M40.4721 1.24225H41V4.58119C41 4.88177 40.9393 5.1382 40.8178 5.3505C40.6963 5.5628 40.5266 5.72359 40.3088 5.8329C40.093 5.9443 39.8437 6 39.561 6C39.4437 6 39.3054 5.98108 39.1462 5.94325C38.9891 5.90751 38.8341 5.84551 38.6812 5.75723C38.5304 5.67105 38.4037 5.55439 38.301 5.40725L38.6058 5.06043C38.7482 5.23279 38.897 5.3526 39.052 5.41986C39.2091 5.48713 39.3641 5.52076 39.517 5.52076C39.7013 5.52076 39.8605 5.48607 39.9946 5.41671C40.1286 5.34735 40.2323 5.24435 40.3056 5.10772C40.381 4.9732 40.4187 4.80715 40.4187 4.60956V1.99264L40.4721 1.24225ZM38.1314 2.98581V2.9196C38.1314 2.65896 38.1617 2.42249 38.2225 2.21019C38.2853 1.9958 38.3743 1.81188 38.4895 1.65843C38.6068 1.50499 38.7482 1.38728 38.9137 1.30531C39.0792 1.22123 39.2656 1.17919 39.473 1.17919C39.6866 1.17919 39.8731 1.21703 40.0323 1.2927C40.1936 1.36626 40.3297 1.47451 40.4407 1.61745C40.5538 1.75828 40.6429 1.92853 40.7078 2.12822C40.7727 2.3279 40.8178 2.55386 40.8429 2.8061V3.09616C40.8199 3.3463 40.7748 3.5712 40.7078 3.77089C40.6429 3.97057 40.5538 4.14083 40.4407 4.28166C40.3297 4.42249 40.1936 4.53074 40.0323 4.60641C39.871 4.67998 39.6825 4.71676 39.4667 4.71676C39.2635 4.71676 39.0792 4.67367 38.9137 4.58749C38.7503 4.50131 38.61 4.38045 38.4927 4.22491C38.3754 4.06936 38.2853 3.8865 38.2225 3.6763C38.1617 3.464 38.1314 3.23384 38.1314 2.98581ZM38.7126 2.9196V2.98581C38.7126 3.15607 38.7294 3.31582 38.7629 3.46506C38.7985 3.61429 38.8519 3.74566 38.9231 3.85917C38.9965 3.97267 39.0897 4.06201 39.2028 4.12717C39.3159 4.19023 39.451 4.22176 39.6081 4.22176C39.8008 4.22176 39.96 4.18077 40.0857 4.09879C40.2114 4.01682 40.3109 3.90857 40.3842 3.77404C40.4596 3.63952 40.5182 3.49343 40.5601 3.33579V2.57593C40.5371 2.46033 40.5015 2.34892 40.4533 2.24172C40.4072 2.13242 40.3465 2.03573 40.2711 1.95166C40.1977 1.86548 40.1066 1.79716 39.9977 1.74672C39.8888 1.69627 39.761 1.67105 39.6144 1.67105C39.4552 1.67105 39.318 1.70468 39.2028 1.77194C39.0897 1.8371 38.9965 1.92748 38.9231 2.04309C38.8519 2.15659 38.7985 2.28902 38.7629 2.44036C38.7294 2.5896 38.7126 2.74934 38.7126 2.9196Z" fill="white"></path></svg>