<svg width="253" height="36" viewBox="0 0 253 36" fill="none" xmlns="http://www.w3.org/2000/svg">
<path d="M101.592 3H102.675C108.591 3.20408 114.166 6.95111 116.485 12.3007C118.62 17.0346 118.116 22.8091 115.146 27.0948C112.637 30.8451 108.386 33.4078 103.84 33.8929C99.3752 34.4249 94.7232 32.9528 91.4164 29.9586C88.1266 27.0613 86.1957 22.7422 86.2604 18.3996C86.2502 13.9065 88.3855 9.48036 91.9068 6.62325C94.5938 4.37503 98.0743 3.12713 101.592 3ZM99.6068 8.56367C95.3839 9.56065 92.1793 13.475 91.9272 17.7104C91.5594 21.7218 93.8242 25.8301 97.492 27.6501C100.925 29.4433 105.393 28.9482 108.359 26.4892C112.129 23.5217 113.253 17.9011 110.985 13.7259C108.989 9.70786 104.031 7.38269 99.6068 8.56367Z" fill="white"/>
<path d="M16 3.90998C17.6824 3.58212 19.4158 3.74605 21.1186 3.76947C21.6124 3.69252 21.6328 4.33487 21.643 4.65604C21.6464 11.2501 21.6396 17.8476 21.643 24.4417C27.0238 17.8576 32.3808 11.2568 37.7412 4.66273C38.109 4.23116 38.5381 3.72932 39.1715 3.75943C41.2557 3.69586 43.3467 3.72932 45.4344 3.77616C44.978 4.83336 44.1539 5.65637 43.4421 6.54294C36.4334 15.1611 29.418 23.7759 22.4127 32.3975C22.0653 32.7755 21.6873 33.2606 21.105 33.2339C19.4056 33.3275 17.6994 33.274 16 33.1971V3.90998Z" fill="white"/>
<path d="M53.0152 5.92068C53.744 5.00399 54.5375 3.88323 55.8316 3.78286C57.2755 3.70257 58.7297 3.68919 60.1737 3.78286C60.6334 4.02374 60.4597 4.5858 60.5108 4.99396C60.4938 13.2508 60.5074 21.5077 60.504 29.7679C60.4904 30.9221 60.5858 32.0863 60.3814 33.2305C58.757 33.274 57.1325 33.2941 55.508 33.2506C54.9121 33.3008 54.4693 32.8625 54.1322 32.4477C51.5542 29.2794 48.9932 26.1045 46.3947 22.9529C43.8371 26.0911 41.2796 29.2326 38.7322 32.3774C38.395 32.7555 38.0306 33.2439 37.4551 33.2339C35.3641 33.3142 33.2697 33.2539 31.1752 33.2506C31.1173 32.7153 31.5601 32.3406 31.8427 31.9425C38.9127 23.2775 45.9622 14.5991 53.0152 5.92068ZM49.5313 18.4933C51.3022 20.678 53.0731 22.8593 54.8542 25.0372C54.8508 20.6847 54.8678 16.3354 54.844 11.9828C53.056 14.1407 51.309 16.3287 49.5313 18.4933Z" fill="white"/>
<path d="M67.2743 5.03077C67.3458 4.60923 67.0938 3.81633 67.7545 3.76949C69.4709 3.79626 71.2622 3.50519 72.9344 3.9535C72.9173 11.9695 72.9276 19.9854 72.9276 28.0014C77.2731 28.0349 81.6186 27.9345 85.9573 28.0583C85.3954 29.3564 84.2681 30.2965 83.4576 31.4373C82.7867 32.1733 82.2384 33.3744 81.0499 33.2606C76.483 33.2272 71.9127 33.361 67.3526 33.1904C67.1824 23.8061 67.3356 14.4151 67.2743 5.03077Z" fill="white"/>
<path d="M122.853 5.36531C122.904 4.78653 122.622 3.65907 123.568 3.74606C131.081 3.71929 138.597 3.74606 146.11 3.73268C146.491 3.70591 147.196 3.78286 147.08 4.33488C147.07 6.53291 147.217 8.75437 146.999 10.939C144.72 14.1073 142.078 17.0313 139.66 20.1025C142.878 24.0536 146.079 28.0181 149.315 31.9559C149.611 32.3406 149.972 32.7287 149.992 33.2406C147.901 33.2673 145.81 33.3008 143.719 33.2406C142.95 33.2339 142.548 32.4878 142.098 31.9927C138.931 27.988 135.57 24.1239 132.498 20.049C135.457 16.3455 138.485 12.6954 141.454 9.00194C137.14 8.9986 132.825 8.99525 128.51 9.00529C128.462 17.0648 128.598 25.1276 128.442 33.1837C126.61 33.3175 124.764 33.3209 122.932 33.1837C122.765 23.9131 122.921 14.6392 122.853 5.36531Z" fill="white"/>
<path d="M154.689 4.64601C154.644 4.278 154.767 3.66242 155.285 3.75609C156.916 3.75944 158.571 3.62562 160.189 3.83304C161.002 4.23785 161.438 5.10101 162.028 5.75005C169.087 14.4218 176.133 23.1035 183.203 31.7652C183.537 32.2168 184.031 32.6384 184.017 33.2472C181.943 33.2606 179.863 33.3041 177.789 33.2406C177.203 33.2707 176.815 32.7889 176.474 32.3975C173.923 29.2426 171.355 26.0978 168.794 22.9496C166.206 26.0978 163.642 29.2727 161.071 32.4376C160.73 32.8458 160.298 33.2941 159.708 33.2506C158.224 33.284 156.732 33.2907 155.247 33.2406C154.593 33.3309 154.716 32.5079 154.685 32.1231C154.695 22.963 154.685 13.8028 154.689 4.64601ZM160.332 11.9695C160.321 16.3254 160.328 20.6813 160.328 25.0339C162.116 22.8626 163.887 20.678 165.661 18.4933C163.87 16.3287 162.123 14.1307 160.332 11.9695Z" fill="white"/>
<path d="M179.774 3.97021C180.581 3.4851 181.64 3.83639 182.546 3.73267C183.656 3.84977 185.111 3.35128 185.907 4.36833C191.37 11.0494 196.802 17.7573 202.258 24.4484C202.295 17.6368 202.179 10.8186 202.312 4.0137C202.404 3.95348 202.581 3.83304 202.673 3.77282C204.233 3.70256 205.806 3.70926 207.369 3.76613C208.074 3.74606 207.846 4.59583 207.907 5.02406C207.85 14.4117 207.996 23.8027 207.836 33.1837C206.218 33.3275 204.594 33.2673 202.973 33.2573C202.36 33.3075 201.886 32.906 201.546 32.461C196.148 25.8268 190.764 19.1858 185.352 12.5616C185.311 16.6666 185.424 20.775 185.294 24.8766C184.835 24.7529 184.498 24.4484 184.229 24.0837C182.887 22.3842 181.487 20.7281 180.138 19.0319C179.559 18.3896 179.723 17.493 179.692 16.7068C179.76 12.4613 179.594 8.20904 179.774 3.97021Z" fill="white"/>
<path d="M211.878 4.0271C212.178 3.64236 212.737 3.77953 213.166 3.726C218.73 3.73938 224.295 3.74273 229.86 3.726C230.711 3.80295 231.746 3.51523 232.462 4.10405C233.732 5.44897 234.828 6.95113 236 8.37968V8.99192C232.639 9.01199 229.277 8.98858 225.916 9.0053C225.882 17.0748 226.018 25.1443 225.875 33.2105C224.029 33.2874 222.177 33.3242 220.334 33.187C220.236 25.1276 220.307 17.0648 220.266 9.00196C217.572 8.95177 214.872 9.0856 212.185 8.94843C212.107 8.87148 211.953 8.72093 211.878 8.64398C211.763 7.11171 211.776 5.55937 211.878 4.0271Z" fill="white"/>
</svg>
