<svg width="186" height="69" viewBox="0 0 186 69" fill="none" xmlns="http://www.w3.org/2000/svg">
<path d="M33.764 67.9327C29.8325 67.9327 25.94 67.9327 21.9924 67.9327C21.3376 58.3578 20.685 48.8064 20.0301 39.2241C19.7904 39.2241 19.5886 39.2241 19.3133 39.2241C18.7192 48.773 18.1251 58.328 17.5288 67.919C13.5238 67.919 9.56021 67.919 5.55645 67.919C5.28807 65.7913 5.01856 63.6672 4.75134 61.5432C4.1584 56.8178 3.5666 52.0911 2.97481 47.3644C2.37958 42.6179 1.86693 37.8565 1.16503 33.1285C0.56636 29.0937 0.810647 25.0515 0.737246 21.0093C0.734952 20.9101 0.754449 20.8096 0.767064 20.6732C3.60331 20.6732 6.42234 20.6732 9.31019 20.6732C9.96506 29.9853 10.6188 39.2824 11.2737 48.6056C11.5271 48.6056 11.7278 48.6056 11.9905 48.6056C12.5261 39.2936 13.0605 30.0026 13.5984 20.6658C13.8197 20.6546 14.0055 20.636 14.1925 20.636C17.7857 20.6348 21.38 20.6422 24.9732 20.6249C25.4273 20.6224 25.5925 20.7427 25.628 21.2647C25.9847 26.6014 26.3701 31.9357 26.7417 37.27C26.9894 40.8125 27.2279 44.3563 27.4734 47.9C27.4894 48.1245 27.5181 48.3477 27.5445 48.6031C27.7784 48.6031 27.9814 48.6031 28.2475 48.6031C28.782 39.3122 29.3164 30.02 29.8543 20.6832C32.7674 20.6832 35.6403 20.6832 38.5729 20.6832C38.5821 20.9039 38.6004 21.1221 38.6004 21.3403C38.6027 23.9851 38.6807 26.6349 38.5752 29.2748C38.5007 31.1446 38.1921 33.0058 37.9605 34.8669C37.3733 39.5936 36.77 44.3178 36.1736 49.0433C35.5463 54.0142 34.9201 58.9852 34.2939 63.9562C34.1551 65.061 34.0175 66.1657 33.8753 67.2705C33.8443 67.49 33.8007 67.7082 33.764 67.9327Z" fill="white"/>
<path d="M148.11 47.3507C148.169 54.2684 148.229 61.165 148.287 68.1137C145.436 68.1137 142.62 68.1137 139.765 68.1137C139.765 52.3118 139.765 36.5148 139.765 20.6348C139.954 20.6348 140.14 20.6348 140.324 20.6348C142.733 20.6348 145.141 20.6484 147.55 20.6224C148 20.6174 148.167 20.7935 148.295 21.2337C150.173 27.6666 152.066 34.0932 153.956 40.5211C154.031 40.7753 154.111 41.0258 154.189 41.28C154.424 41.28 154.629 41.28 154.879 41.28C154.879 34.4218 154.879 27.5884 154.879 20.6956C157.756 20.6956 160.586 20.6956 163.448 20.6956C163.448 36.5 163.448 52.2969 163.448 68.1323C163.258 68.1447 163.091 68.1658 162.924 68.1658C160.42 68.1683 157.915 68.1559 155.411 68.1782C155.011 68.1819 154.858 68.0356 154.738 67.6363C152.771 61.0398 150.788 54.4495 148.815 47.8554C148.71 47.5057 148.647 47.1424 148.11 47.3507Z" fill="white"/>
<path d="M72.1993 67.9302C68.9388 67.9302 65.7722 67.9302 62.577 67.9302C62.577 52.1829 62.577 36.4641 62.577 20.6671C62.7731 20.6559 62.9727 20.6361 63.1722 20.6361C68.7541 20.6349 74.3348 20.6311 79.9167 20.6361C83.2438 20.6398 86.1259 23.7509 86.1271 27.3231C86.1282 31.3741 86.1076 35.4237 86.134 39.4747C86.1535 42.5894 84.8414 44.7829 82.3183 46.1902C82.2506 46.2274 82.183 46.2646 82.1176 46.3055C82.1027 46.3154 82.0935 46.3365 82.0442 46.4035C82.6337 48.0402 83.2335 49.7092 83.8345 51.3757C84.9504 54.4694 86.0675 57.563 87.1811 60.6592C87.2568 60.8687 87.3508 61.0919 87.352 61.3089C87.3646 63.4974 87.36 65.6859 87.36 67.96C87.1444 67.96 86.9609 67.96 86.7762 67.96C84.3104 67.96 81.8446 67.9426 79.3788 67.9749C78.8971 67.9811 78.7366 67.7963 78.5978 67.3351C76.9234 61.7851 75.2283 56.2425 73.5389 50.6987C73.2384 49.7141 73.2384 49.7142 72.1993 49.8828C72.1993 55.8779 72.1993 61.8818 72.1993 67.9302ZM72.2326 29.1459C72.2326 33.1174 72.2326 37.0047 72.2326 40.9242C73.3061 40.9242 74.3348 40.9427 75.3636 40.9179C76.0334 40.9018 76.4681 40.3848 76.4681 39.6805C76.4681 36.6054 76.4692 33.5291 76.4681 30.454C76.4681 29.8526 75.8992 29.1632 75.351 29.1521C74.3234 29.131 73.2946 29.1459 72.2326 29.1459Z" fill="white"/>
<path d="M114.165 44.6502C114.165 39.1324 114.158 33.6146 114.168 28.0968C114.172 26.1662 114.62 24.3795 115.773 22.8531C116.425 21.9876 117.229 21.3279 118.18 20.9051C118.54 20.7452 118.952 20.6485 119.341 20.6472C123.489 20.6286 127.636 20.6361 131.785 20.6361C134.746 20.6361 136.882 22.4513 137.545 25.576C137.681 26.2146 137.754 26.8829 137.755 27.5376C137.768 38.5322 137.771 49.5256 137.759 60.5203C137.755 63.3399 136.901 65.7454 134.665 67.4094C133.975 67.924 133.241 68.1918 132.367 68.1844C128.105 68.1459 123.842 68.1497 119.579 68.1757C117.879 68.1856 116.589 67.4181 115.662 65.9314C114.693 64.379 114.139 62.6926 114.152 60.7695C114.19 55.3968 114.165 50.0229 114.165 44.6502ZM123.808 44.3699C123.808 49.0396 123.807 53.7092 123.809 58.3789C123.809 59.2146 124.196 59.656 124.914 59.6572C125.544 59.6585 126.175 59.6572 126.806 59.6572C127.792 59.6572 128.113 59.3063 128.113 58.2251C128.113 49.0098 128.113 39.7945 128.113 30.5805C128.113 30.4354 128.123 30.2903 128.11 30.1465C128.059 29.5773 127.621 29.1483 127.093 29.1471C126.405 29.1446 125.716 29.1471 125.028 29.1471C124.165 29.1471 123.808 29.5364 123.807 30.4875C123.807 35.1137 123.808 39.7412 123.808 44.3699Z" fill="white"/>
<path d="M45.7516 67.9265C42.6585 67.9265 39.6089 67.9265 36.4997 67.9265C36.4894 67.7046 36.4699 67.4876 36.4688 67.2706C36.4665 64.9569 36.3816 62.6369 36.4951 60.3294C36.5812 58.586 36.9069 56.8538 37.1569 55.1216C38.0067 49.2281 38.8703 43.3371 39.7294 37.4449C40.5345 31.9197 41.3407 26.3944 42.1493 20.8705C42.1573 20.8122 42.1883 20.7589 42.2192 20.6758C46.6026 20.6758 50.9883 20.6758 55.4015 20.6758C55.7616 23.1978 56.1183 25.6839 56.4727 28.17C57.2927 33.9222 58.1104 39.6755 58.9316 45.4277C59.5934 50.0576 60.2586 54.6876 60.9215 59.3176C60.9306 59.3783 60.9387 59.4403 60.9387 59.5023C60.9398 62.2897 60.9398 65.0771 60.9398 67.9129C57.9075 67.9129 54.8992 67.9129 51.8267 67.9129C51.5893 64.9345 51.3507 61.9401 51.111 58.922C49.557 58.922 48.0523 58.922 46.4696 58.922C46.2299 61.9177 45.9913 64.9085 45.7516 67.9265ZM50.2142 48.9925C49.8563 43.9645 49.5019 38.9799 49.1487 34.0189C48.8563 34.0189 48.6544 34.0189 48.4285 34.0189C48.0133 39.0246 47.6004 43.9918 47.1852 48.9925C48.2106 48.9925 49.1728 48.9925 50.2142 48.9925Z" fill="white"/>
<path d="M112.391 20.6844C112.391 22.6696 112.32 24.5927 112.412 26.5072C112.498 28.2927 112.108 29.8724 111.391 31.4831C107.552 40.1094 103.791 48.7767 100.002 57.4303C99.9209 57.6163 99.8441 57.8035 99.7179 58.1011C103.965 58.1011 108.148 58.1011 112.358 58.1011C112.358 61.4366 112.358 64.6716 112.358 67.9339C104.455 67.9339 96.5858 67.9339 88.6425 67.9339C88.6345 67.738 88.6184 67.5421 88.6184 67.3462C88.6173 64.8873 88.607 62.4285 88.6288 59.9697C88.6322 59.6163 88.7354 59.2369 88.8788 58.9145C92.9663 49.6843 97.0652 40.4604 101.161 31.2339C101.257 31.0169 101.345 30.7962 101.472 30.4949C97.1512 30.4949 92.9181 30.4949 88.6517 30.4949C88.6517 27.2041 88.6517 23.969 88.6517 20.6856C96.5514 20.6844 104.43 20.6844 112.391 20.6844Z" fill="white"/>
<path d="M185.243 20.6634C185.243 23.9456 185.243 27.1818 185.243 30.4789C181.877 30.4789 178.522 30.4789 175.124 30.4789C175.124 33.3952 175.124 36.2521 175.124 39.1684C178.122 39.1684 181.113 39.1684 184.196 39.1684C183.837 42.4816 183.485 45.7253 183.125 49.0384C180.432 49.0384 177.785 49.0384 175.109 49.0384C175.109 52.0812 175.109 55.0497 175.109 58.0863C178.466 58.0863 181.82 58.0863 185.221 58.0863C185.221 61.4652 185.221 64.7758 185.221 68.1274C178.604 68.1274 171.983 68.1274 165.299 68.1274C165.286 67.898 165.264 67.6798 165.264 67.4628C165.263 52.0924 165.266 36.722 165.252 21.3504C165.252 20.7887 165.38 20.6213 165.916 20.6237C172.164 20.6448 178.413 20.6361 184.662 20.6386C184.847 20.6361 185.033 20.6535 185.243 20.6634Z" fill="white"/>
<path d="M119.21 15.6279C117.835 15.6279 116.558 15.6279 115.224 15.6279C115.224 11.732 115.224 7.83853 115.224 3.87317C114.419 3.87317 113.665 3.87317 112.87 3.87317C112.87 2.84401 112.87 1.88801 112.87 0.871251C113.081 0.871251 113.268 0.871251 113.455 0.871251C116.685 0.871251 119.915 0.88117 123.143 0.85885C123.579 0.856371 123.78 0.987804 123.908 1.44287C124.305 2.84153 124.744 4.22655 125.168 5.61654C125.203 5.72813 125.246 5.83601 125.331 6.07284C125.811 4.46587 126.275 2.9928 126.68 1.50114C126.82 0.985325 127.044 0.832812 127.521 0.85885C128.32 0.902249 129.123 0.87001 130.008 0.87001C129.942 1.12668 129.896 1.33375 129.836 1.53462C129.001 4.31955 128.158 7.10324 127.335 9.89189C127.227 10.2577 127.167 10.6545 127.163 11.0388C127.143 12.5615 127.155 14.0854 127.155 15.6477C125.905 15.6477 124.714 15.6477 123.468 15.6477C123.468 14.0866 123.481 12.5627 123.46 11.0388C123.454 10.6148 123.39 10.1758 123.273 9.77037C122.775 8.03816 122.22 6.32331 121.744 4.58366C121.579 3.97857 121.332 3.75041 120.751 3.82605C120.264 3.88929 119.764 3.83969 119.209 3.83969C119.21 7.77529 119.21 11.6675 119.21 15.6279Z" fill="white"/>
<path d="M93.1316 0.66048C95.3531 0.746036 97.5264 0.796876 99.6975 0.92955C100.443 0.975428 101.198 1.24202 101.674 1.91779C101.983 2.35797 102.318 2.92463 102.327 3.44169C102.39 6.70152 102.402 9.96382 102.353 13.2237C102.333 14.5293 101.664 15.2373 100.473 15.5064C100.12 15.5858 99.7548 15.6403 99.3947 15.6453C97.4278 15.6701 95.4598 15.6775 93.4917 15.6874C93.3805 15.6874 93.2704 15.6552 93.1304 15.6341C93.1316 10.6892 93.1316 5.76163 93.1316 0.66048ZM96.9748 13.1257C97.2959 13.091 97.5574 13.0513 97.8212 13.0364C98.3797 13.0067 98.6573 12.6843 98.6584 12.0941C98.6641 9.43189 98.6733 6.76971 98.6435 4.10878C98.6412 3.86699 98.4084 3.49377 98.2065 3.41813C97.8326 3.27802 97.4026 3.31149 96.9759 3.27181C96.9748 6.58992 96.9748 9.80511 96.9748 13.1257Z" fill="white"/>
<path d="M103.221 0.95316C104.472 0.95316 105.722 0.95316 107.03 0.95316C107.03 1.21231 107.03 1.43302 107.03 1.65373C107.033 5.26818 107.03 8.88139 107.042 12.4958C107.045 13.313 107.352 13.5994 108.023 13.3936C108.225 13.3316 108.456 13.0575 108.509 12.8356C108.597 12.4648 108.562 12.0569 108.563 11.6651C108.565 8.34077 108.564 5.01523 108.564 1.69093C108.564 1.46526 108.564 1.24083 108.564 0.964319C109.841 0.964319 111.086 0.964319 112.352 0.964319C112.368 1.06847 112.391 1.14659 112.391 1.22471C112.386 4.77716 112.411 8.32961 112.357 11.8808C112.319 14.326 111.269 15.5598 109.007 15.9342C107.662 16.1574 106.336 16.0322 105.089 15.3837C103.949 14.7897 103.253 13.8412 103.239 12.4301C103.205 8.67184 103.19 4.91479 103.169 1.15651C103.169 1.09947 103.197 1.04244 103.221 0.95316Z" fill="white"/>
<path d="M65.4764 7.39715C64.0933 7.39715 62.8409 7.39715 61.5185 7.39715C61.5185 7.08964 61.5208 6.80817 61.5185 6.52546C61.5116 5.6575 61.5048 4.79077 61.4956 3.92281C61.4899 3.33631 61.2238 3.06352 60.6721 3.08088C60.0597 3.10072 59.8051 3.29291 59.8028 3.95009C59.789 6.86273 59.8016 9.77413 59.8085 12.6868C59.8097 13.2621 60.0769 13.556 60.6228 13.5634C61.2536 13.5721 61.5518 13.3675 61.5805 12.7165C61.624 11.7494 61.5919 10.7797 61.5919 9.75677C62.8982 9.75677 64.1323 9.75677 65.4523 9.75677C65.4007 11.1703 65.5946 12.6583 64.958 14.0061C64.4098 15.1679 63.3753 15.7073 62.2445 15.99C61.0919 16.2789 59.9255 16.2454 58.7786 15.9416C56.9367 15.4543 56.0307 14.414 55.9458 12.2788C55.8357 9.51746 55.8701 6.74617 55.9275 3.98108C55.9538 2.73122 56.6546 1.80373 57.6684 1.2532C59.5952 0.206679 61.5713 0.21412 63.5256 1.17384C64.6002 1.70082 65.2104 2.64814 65.3055 3.92777C65.387 5.0586 65.4179 6.19192 65.4764 7.39715Z" fill="white"/>
<path d="M67.2224 0.788192C69.1744 0.788192 71.0633 0.788192 72.9981 0.788192C73.7585 5.74551 74.5166 10.6892 75.2896 15.7308C74.1335 15.7308 73.0164 15.742 71.9005 15.711C71.8065 15.7085 71.6643 15.4295 71.639 15.2621C71.5071 14.4115 71.4074 13.5547 71.295 12.688C71.0209 12.6694 70.7949 12.6545 70.499 12.6347C70.3362 11.7258 70.1722 10.807 70.0013 9.84727C70.2903 9.82743 70.5334 9.81131 70.8488 9.79023C70.6596 7.98114 70.4715 6.18198 70.2823 4.38281C70.2375 4.38157 70.1928 4.37909 70.1492 4.37785C69.7088 8.14854 69.2684 11.918 68.8269 15.7073C67.6123 15.7073 66.4184 15.7073 65.1763 15.7073C65.861 10.7004 66.5411 5.74551 67.2224 0.788192Z" fill="white"/>
<path d="M82.651 15.6403C82.651 10.6582 82.651 5.7319 82.651 0.772105C83.9665 0.772105 85.2556 0.772105 86.5986 0.772105C86.5986 4.71514 86.5986 8.64825 86.5986 12.6533C87.4186 12.6533 88.1905 12.6533 89.007 12.6533C89.007 13.68 89.007 14.6347 89.007 15.6403C86.906 15.6403 84.8003 15.6403 82.651 15.6403Z" fill="white"/>
<path d="M81.9624 15.6552C79.8258 15.6552 77.7304 15.6552 75.6064 15.6552C75.6064 10.6905 75.6064 5.76041 75.6064 0.783253C76.8989 0.783253 78.1869 0.783253 79.5367 0.783253C79.5367 4.71885 79.5367 8.65321 79.5367 12.6558C80.3694 12.6558 81.1424 12.6558 81.9613 12.6558C81.9624 13.6787 81.9624 14.636 81.9624 15.6552Z" fill="white"/>
<path d="M90.0848 6.77341C90.0848 7.33014 90.1066 7.88812 90.0791 8.44362C90.047 9.10451 89.6078 9.49013 88.9071 9.52609C88.187 9.56329 87.6251 9.19255 87.5987 8.54405C87.5517 7.41198 87.5551 6.27495 87.5964 5.14287C87.6193 4.51546 88.1514 4.18935 88.9335 4.21911C89.633 4.24639 90.0401 4.60101 90.086 5.22595C90.0906 5.28795 90.0929 5.34994 90.0929 5.41194C90.094 5.86576 90.0929 6.31959 90.0929 6.77341H90.0848ZM88.9828 4.973C88.9048 4.97548 88.8257 4.97672 88.7477 4.9792C88.7477 6.25263 88.7477 7.52481 88.7477 8.79824C88.8269 8.79824 88.906 8.79948 88.9851 8.79948C89.0333 7.52358 89.0264 6.24891 88.9828 4.973Z" fill="white"/>
<path d="M90.5623 4.29471C91.1574 4.29471 91.74 4.29471 92.3661 4.29471C92.3661 4.5613 92.3661 4.81178 92.3661 5.08704C92.1333 5.11804 91.9131 5.1478 91.6689 5.18004C91.6689 5.54954 91.6689 5.89301 91.6689 6.26996C91.8684 6.29972 92.0508 6.32575 92.2801 6.35923C92.2801 6.56383 92.2801 6.77462 92.2801 7.03253C92.0932 7.06104 91.8959 7.0908 91.6517 7.12676C91.6517 7.87693 91.6517 8.61222 91.6517 9.39587C91.2721 9.39587 90.9407 9.39587 90.5623 9.39587C90.5623 7.72442 90.5623 6.02816 90.5623 4.29471Z" fill="white"/>
<path d="M129.175 13.4345C129.734 13.4407 130.225 13.9912 130.215 14.6025C130.206 15.215 129.692 15.7495 129.136 15.7247C128.587 15.6999 128.137 15.1902 128.133 14.5901C128.129 13.9664 128.613 13.4283 129.175 13.4345ZM129.139 15.5077C129.601 15.5263 129.974 15.1344 129.983 14.6223C129.992 14.0978 129.661 13.6825 129.209 13.6515C128.729 13.618 128.326 14.0346 128.324 14.5665C128.321 15.0662 128.688 15.4891 129.139 15.5077Z" fill="white"/>
<path d="M129.494 15.1841C129.37 15.0117 129.249 14.8418 129.056 14.5728C128.983 14.8753 128.945 15.0353 128.906 15.1965C128.857 15.1952 128.807 15.1927 128.759 15.1915C128.759 14.8456 128.729 14.4947 128.777 14.1561C128.791 14.0582 129.041 13.9168 129.158 13.9392C129.31 13.9689 129.537 14.1289 129.554 14.2603C129.593 14.5542 129.522 14.8642 129.494 15.1841Z" fill="white"/>
</svg>
